<svg width="49" height="49" viewBox="0 0 49 49" fill="none" xmlns="http://www.w3.org/2000/svg">
<path d="M20.3296 17.3388C22.8205 15.8858 25.9006 15.8858 28.3915 17.3388L46.4375 27.8656C49.0835 29.4091 49.0835 33.2323 46.4375 34.7758L28.3915 45.3027C25.9006 46.7557 22.8205 46.7557 20.3296 45.3027L2.28359 34.7758C-0.362432 33.2323 -0.362433 29.4091 2.28359 27.8656L20.3296 17.3388Z" fill="#11263C"/>
<path d="M20.3296 2.33879C22.8205 0.885768 25.9006 0.885767 28.3915 2.33879L46.4375 12.8656C49.0835 14.4091 49.0835 18.2323 46.4375 19.7758L28.3915 30.3027C25.9006 31.7557 22.8205 31.7557 20.3296 30.3027L2.28359 19.7758C-0.362432 18.2323 -0.362433 14.4091 2.28359 12.8656L20.3296 2.33879Z" fill="#284277"/>
</svg>
