<svg width="49" height="49" viewBox="0 0 49 49" fill="none" xmlns="http://www.w3.org/2000/svg">
<g id="Placeholder Logo">
<circle id="Vector" cx="24.3633" cy="24.8086" r="18" stroke="#284277" stroke-width="12"/>
<g id="Vector_2">
<mask id="path-2-inside-1_31_407" fill="white">
<path d="M48.3633 24.8086C48.3633 21.6569 47.7425 18.536 46.5364 15.6242C45.3303 12.7124 43.5625 10.0666 41.3338 7.83803C39.1052 5.60942 36.4595 3.8416 33.5477 2.63548C30.6359 1.42937 27.515 0.808594 24.3633 0.808594C21.2116 0.808594 18.0907 1.42937 15.1789 2.63549C12.2671 3.8416 9.62132 5.60943 7.39272 7.83803C5.16411 10.0666 3.39628 12.7124 2.19017 15.6242C0.984059 18.536 0.363281 21.6569 0.363281 24.8086L24.3633 24.8086H48.3633Z"/>
</mask>
<path d="M48.3633 24.8086C48.3633 21.6569 47.7425 18.536 46.5364 15.6242C45.3303 12.7124 43.5625 10.0666 41.3338 7.83803C39.1052 5.60942 36.4595 3.8416 33.5477 2.63548C30.6359 1.42937 27.515 0.808594 24.3633 0.808594C21.2116 0.808594 18.0907 1.42937 15.1789 2.63549C12.2671 3.8416 9.62132 5.60943 7.39272 7.83803C5.16411 10.0666 3.39628 12.7124 2.19017 15.6242C0.984059 18.536 0.363281 21.6569 0.363281 24.8086L24.3633 24.8086H48.3633Z" stroke="#0075FF" stroke-width="24" mask="url(#path-2-inside-1_31_407)"/>
</g>
</g>
</svg>
