<svg width="849" height="268" viewBox="0 0 849 268" fill="none" xmlns="http://www.w3.org/2000/svg">
<path d="M259.328 0.768555V267.764" stroke="#487AF9"/>
<path d="M94.6797 0.768555V267.764" stroke="#487AF9"/>
<path d="M423.969 0.768555V267.764" stroke="#487AF9"/>
<path d="M588.617 0.768555V267.764" stroke="#487AF9"/>
<path d="M753.266 0.768555V267.764" stroke="#487AF9"/>
<path d="M45.927 21.4424V22.5557H38.947V21.5815L42.4407 17.6924C42.8704 17.2139 43.2024 16.8086 43.4368 16.4766C43.6761 16.1396 43.8421 15.8394 43.9348 15.5757C44.0325 15.3071 44.0813 15.0337 44.0813 14.7554C44.0813 14.4038 44.0081 14.0864 43.8616 13.8032C43.72 13.5151 43.51 13.2856 43.2317 13.1147C42.9534 12.9438 42.6165 12.8584 42.221 12.8584C41.7473 12.8584 41.3518 12.9512 41.0345 13.1367C40.722 13.3174 40.4876 13.5713 40.3313 13.8984C40.1751 14.2256 40.097 14.6016 40.097 15.0264H38.742C38.742 14.4258 38.8738 13.8765 39.1375 13.3784C39.4011 12.8804 39.7918 12.4849 40.3094 12.1919C40.8269 11.894 41.4641 11.7451 42.221 11.7451C42.8948 11.7451 43.471 11.8647 43.9495 12.104C44.428 12.3384 44.7942 12.6704 45.0481 13.1001C45.3069 13.5249 45.4363 14.0229 45.4363 14.5942C45.4363 14.9067 45.3826 15.2241 45.2752 15.5464C45.1726 15.8638 45.0286 16.1812 44.843 16.4985C44.6624 16.8159 44.45 17.1284 44.2058 17.436C43.9666 17.7437 43.7102 18.0464 43.4368 18.3442L40.5803 21.4424H45.927ZM54.5843 18.9668V20.0801H46.8792V19.2817L51.6546 11.8916H52.7605L51.574 14.0303L48.4173 18.9668H54.5843ZM53.0974 11.8916V22.5557H51.7425V11.8916H53.0974ZM63.1316 16.4766V17.6265H57.3601V16.4766H63.1316ZM57.5799 11.8916V22.5557H56.1663V11.8916H57.5799ZM64.3621 11.8916V22.5557H62.9558V11.8916H64.3621Z" fill="black" fill-opacity="0.3"/>
<path d="M174.42 21.4424V22.5557H167.44V21.5815L170.934 17.6924C171.363 17.2139 171.695 16.8086 171.93 16.4766C172.169 16.1396 172.335 15.8394 172.428 15.5757C172.525 15.3071 172.574 15.0337 172.574 14.7554C172.574 14.4038 172.501 14.0864 172.354 13.8032C172.213 13.5151 172.003 13.2856 171.725 13.1147C171.446 12.9438 171.109 12.8584 170.714 12.8584C170.24 12.8584 169.845 12.9512 169.527 13.1367C169.215 13.3174 168.98 13.5713 168.824 13.8984C168.668 14.2256 168.59 14.6016 168.59 15.0264H167.235C167.235 14.4258 167.367 13.8765 167.63 13.3784C167.894 12.8804 168.285 12.4849 168.802 12.1919C169.32 11.894 169.957 11.7451 170.714 11.7451C171.388 11.7451 171.964 11.8647 172.442 12.104C172.921 12.3384 173.287 12.6704 173.541 13.1001C173.8 13.5249 173.929 14.0229 173.929 14.5942C173.929 14.9067 173.875 15.2241 173.768 15.5464C173.665 15.8638 173.521 16.1812 173.336 16.4985C173.155 16.8159 172.943 17.1284 172.699 17.436C172.459 17.7437 172.203 18.0464 171.93 18.3442L169.073 21.4424H174.42ZM182.564 16.374V18C182.564 18.874 182.486 19.6113 182.33 20.2119C182.174 20.8125 181.949 21.2959 181.656 21.6621C181.363 22.0283 181.009 22.2944 180.594 22.4604C180.184 22.6216 179.72 22.7021 179.203 22.7021C178.792 22.7021 178.414 22.6509 178.067 22.5483C177.721 22.4458 177.408 22.2822 177.13 22.0576C176.856 21.8281 176.622 21.5303 176.427 21.1641C176.231 20.7979 176.082 20.3535 175.98 19.8311C175.877 19.3086 175.826 18.6982 175.826 18V16.374C175.826 15.5 175.904 14.7676 176.06 14.1768C176.222 13.5859 176.449 13.1123 176.742 12.7559C177.035 12.3945 177.386 12.1357 177.796 11.9795C178.211 11.8232 178.675 11.7451 179.188 11.7451C179.603 11.7451 179.984 11.7964 180.331 11.8989C180.682 11.9966 180.995 12.1553 181.268 12.375C181.541 12.5898 181.773 12.8779 181.964 13.2393C182.159 13.5957 182.308 14.0327 182.411 14.5503C182.513 15.0679 182.564 15.6758 182.564 16.374ZM181.202 18.2197V16.147C181.202 15.6685 181.173 15.2485 181.114 14.8872C181.06 14.521 180.98 14.2085 180.872 13.9497C180.765 13.6909 180.628 13.481 180.462 13.3198C180.301 13.1587 180.113 13.0415 179.898 12.9683C179.688 12.8901 179.452 12.8511 179.188 12.8511C178.866 12.8511 178.58 12.9121 178.331 13.0342C178.082 13.1514 177.872 13.3394 177.701 13.5981C177.535 13.8569 177.408 14.1963 177.32 14.6162C177.232 15.0361 177.188 15.5464 177.188 16.147V18.2197C177.188 18.6982 177.215 19.1206 177.269 19.4868C177.328 19.853 177.413 20.1704 177.525 20.439C177.638 20.7026 177.774 20.9199 177.935 21.0908C178.097 21.2617 178.282 21.3887 178.492 21.4717C178.707 21.5498 178.944 21.5889 179.203 21.5889C179.535 21.5889 179.825 21.5254 180.074 21.3984C180.323 21.2715 180.531 21.0737 180.697 20.8052C180.868 20.5317 180.995 20.1826 181.078 19.7578C181.161 19.3281 181.202 18.8154 181.202 18.2197ZM191.624 16.4766V17.6265H185.853V16.4766H191.624ZM186.073 11.8916V22.5557H184.659V11.8916H186.073ZM192.855 11.8916V22.5557H191.449V11.8916H192.855Z" fill="black" fill-opacity="0.3"/>
<path d="M339.312 11.833V22.5557H337.957V13.5249L335.225 14.521V13.2979L339.1 11.833H339.312ZM345.011 17.48L343.927 17.2017L344.461 11.8916H349.932V13.144H345.611L345.289 16.0444C345.484 15.9321 345.731 15.8271 346.029 15.7295C346.331 15.6318 346.678 15.583 347.069 15.583C347.562 15.583 348.004 15.6685 348.394 15.8394C348.785 16.0054 349.117 16.2446 349.39 16.5571C349.669 16.8696 349.881 17.2456 350.028 17.6851C350.174 18.1245 350.247 18.6152 350.247 19.1572C350.247 19.6699 350.177 20.1411 350.035 20.5708C349.898 21.0005 349.691 21.3765 349.412 21.6987C349.134 22.0161 348.783 22.2627 348.358 22.4385C347.938 22.6143 347.442 22.7021 346.871 22.7021C346.441 22.7021 346.034 22.6436 345.648 22.5264C345.267 22.4043 344.925 22.2212 344.622 21.9771C344.325 21.728 344.08 21.4204 343.89 21.0542C343.704 20.6831 343.587 20.2485 343.538 19.7505H344.827C344.886 20.1509 345.003 20.4878 345.179 20.7612C345.355 21.0347 345.584 21.2422 345.867 21.3838C346.156 21.5205 346.49 21.5889 346.871 21.5889C347.193 21.5889 347.479 21.5327 347.728 21.4204C347.977 21.3081 348.187 21.147 348.358 20.937C348.529 20.7271 348.658 20.4731 348.746 20.1753C348.839 19.8774 348.885 19.543 348.885 19.1719C348.885 18.835 348.839 18.5225 348.746 18.2344C348.653 17.9463 348.514 17.6948 348.328 17.48C348.148 17.2651 347.926 17.0991 347.662 16.9819C347.398 16.8599 347.096 16.7988 346.754 16.7988C346.3 16.7988 345.955 16.8599 345.721 16.9819C345.492 17.104 345.255 17.27 345.011 17.48ZM359.051 16.4766V17.6265H353.28V16.4766H359.051ZM353.499 11.8916V22.5557H352.086V11.8916H353.499ZM360.282 11.8916V22.5557H358.875V11.8916H360.282Z" fill="black" fill-opacity="0.3"/>
<path d="M503.959 11.833V22.5557H502.604V13.5249L499.872 14.521V13.2979L503.747 11.833H503.959ZM514.638 16.374V18C514.638 18.874 514.56 19.6113 514.403 20.2119C514.247 20.8125 514.023 21.2959 513.73 21.6621C513.437 22.0283 513.083 22.2944 512.668 22.4604C512.257 22.6216 511.794 22.7021 511.276 22.7021C510.866 22.7021 510.487 22.6509 510.141 22.5483C509.794 22.4458 509.482 22.2822 509.203 22.0576C508.93 21.8281 508.695 21.5303 508.5 21.1641C508.305 20.7979 508.156 20.3535 508.053 19.8311C507.951 19.3086 507.9 18.6982 507.9 18V16.374C507.9 15.5 507.978 14.7676 508.134 14.1768C508.295 13.5859 508.522 13.1123 508.815 12.7559C509.108 12.3945 509.46 12.1357 509.87 11.9795C510.285 11.8232 510.749 11.7451 511.261 11.7451C511.676 11.7451 512.057 11.7964 512.404 11.8989C512.756 11.9966 513.068 12.1553 513.341 12.375C513.615 12.5898 513.847 12.8779 514.037 13.2393C514.233 13.5957 514.382 14.0327 514.484 14.5503C514.587 15.0679 514.638 15.6758 514.638 16.374ZM513.276 18.2197V16.147C513.276 15.6685 513.246 15.2485 513.188 14.8872C513.134 14.521 513.053 14.2085 512.946 13.9497C512.839 13.6909 512.702 13.481 512.536 13.3198C512.375 13.1587 512.187 13.0415 511.972 12.9683C511.762 12.8901 511.525 12.8511 511.261 12.8511C510.939 12.8511 510.653 12.9121 510.404 13.0342C510.155 13.1514 509.945 13.3394 509.775 13.5981C509.609 13.8569 509.482 14.1963 509.394 14.6162C509.306 15.0361 509.262 15.5464 509.262 16.147V18.2197C509.262 18.6982 509.289 19.1206 509.342 19.4868C509.401 19.853 509.486 20.1704 509.599 20.439C509.711 20.7026 509.848 20.9199 510.009 21.0908C510.17 21.2617 510.356 21.3887 510.566 21.4717C510.78 21.5498 511.017 21.5889 511.276 21.5889C511.608 21.5889 511.899 21.5254 512.148 21.3984C512.397 21.2715 512.604 21.0737 512.77 20.8052C512.941 20.5317 513.068 20.1826 513.151 19.7578C513.234 19.3281 513.276 18.8154 513.276 18.2197ZM523.698 16.4766V17.6265H517.926V16.4766H523.698ZM518.146 11.8916V22.5557H516.733V11.8916H518.146ZM524.928 11.8916V22.5557H523.522V11.8916H524.928Z" fill="black" fill-opacity="0.3"/>
<path d="M666.748 17.48L665.664 17.2017L666.199 11.8916H671.67V13.144H667.349L667.026 16.0444C667.222 15.9321 667.468 15.8271 667.766 15.7295C668.069 15.6318 668.416 15.583 668.806 15.583C669.299 15.583 669.741 15.6685 670.132 15.8394C670.522 16.0054 670.854 16.2446 671.128 16.5571C671.406 16.8696 671.619 17.2456 671.765 17.6851C671.912 18.1245 671.985 18.6152 671.985 19.1572C671.985 19.6699 671.914 20.1411 671.772 20.5708C671.636 21.0005 671.428 21.3765 671.15 21.6987C670.872 22.0161 670.52 22.2627 670.095 22.4385C669.675 22.6143 669.18 22.7021 668.608 22.7021C668.179 22.7021 667.771 22.6436 667.385 22.5264C667.004 22.4043 666.663 22.2212 666.36 21.9771C666.062 21.728 665.818 21.4204 665.627 21.0542C665.442 20.6831 665.325 20.2485 665.276 19.7505H666.565C666.624 20.1509 666.741 20.4878 666.916 20.7612C667.092 21.0347 667.322 21.2422 667.605 21.3838C667.893 21.5205 668.228 21.5889 668.608 21.5889C668.931 21.5889 669.216 21.5327 669.465 21.4204C669.714 21.3081 669.924 21.147 670.095 20.937C670.266 20.7271 670.396 20.4731 670.483 20.1753C670.576 19.8774 670.623 19.543 670.623 19.1719C670.623 18.835 670.576 18.5225 670.483 18.2344C670.391 17.9463 670.251 17.6948 670.066 17.48C669.885 17.2651 669.663 17.0991 669.399 16.9819C669.136 16.8599 668.833 16.7988 668.491 16.7988C668.037 16.7988 667.693 16.8599 667.458 16.9819C667.229 17.104 666.992 17.27 666.748 17.48ZM680.789 16.4766V17.6265H675.017V16.4766H680.789ZM675.237 11.8916V22.5557H673.823V11.8916H675.237ZM682.019 11.8916V22.5557H680.613V11.8916H682.019Z" fill="black" fill-opacity="0.3"/>
<path d="M787.21 12.8364L783.68 22.5557H782.237L786.302 11.8916H787.232L787.21 12.8364ZM790.169 22.5557L786.632 12.8364L786.61 11.8916H787.54L791.62 22.5557H790.169ZM789.986 18.6079V19.7651H783.995V18.6079H789.986ZM800.841 17.2456V21.1494C800.709 21.3447 800.499 21.5645 800.211 21.8086C799.923 22.0479 799.525 22.2578 799.017 22.4385C798.514 22.6143 797.865 22.7021 797.069 22.7021C796.419 22.7021 795.821 22.5898 795.274 22.3652C794.732 22.1357 794.261 21.8037 793.861 21.3691C793.465 20.9297 793.158 20.3975 792.938 19.7725C792.723 19.1426 792.616 18.4297 792.616 17.6338V16.8062C792.616 16.0103 792.708 15.2998 792.894 14.6748C793.084 14.0498 793.363 13.52 793.729 13.0854C794.095 12.646 794.544 12.314 795.077 12.0894C795.609 11.8599 796.219 11.7451 796.908 11.7451C797.723 11.7451 798.404 11.8867 798.951 12.1699C799.503 12.4482 799.933 12.834 800.24 13.3271C800.553 13.8203 800.753 14.3818 800.841 15.0117H799.427C799.364 14.626 799.237 14.2744 799.046 13.957C798.861 13.6396 798.595 13.3857 798.248 13.1953C797.901 13 797.455 12.9023 796.908 12.9023C796.415 12.9023 795.987 12.9927 795.626 13.1733C795.265 13.354 794.967 13.6128 794.732 13.9497C794.498 14.2866 794.322 14.6943 794.205 15.1729C794.093 15.6514 794.037 16.1909 794.037 16.7915V17.6338C794.037 18.249 794.107 18.7983 794.249 19.2817C794.395 19.7651 794.603 20.1777 794.872 20.5195C795.14 20.8564 795.46 21.1128 795.831 21.2886C796.207 21.4644 796.622 21.5522 797.076 21.5522C797.579 21.5522 797.987 21.5107 798.299 21.4277C798.612 21.3398 798.856 21.2373 799.032 21.1201C799.207 20.998 799.342 20.8833 799.435 20.7759V18.3882H796.966V17.2456H800.841ZM811.395 16.8867V17.5605C811.395 18.3613 811.295 19.0791 811.095 19.7139C810.895 20.3486 810.606 20.8882 810.23 21.3325C809.854 21.7769 809.403 22.1162 808.875 22.3506C808.353 22.585 807.767 22.7021 807.118 22.7021C806.488 22.7021 805.909 22.585 805.382 22.3506C804.859 22.1162 804.405 21.7769 804.02 21.3325C803.639 20.8882 803.343 20.3486 803.133 19.7139C802.923 19.0791 802.818 18.3613 802.818 17.5605V16.8867C802.818 16.0859 802.921 15.3706 803.126 14.7407C803.336 14.106 803.631 13.5664 804.012 13.1221C804.393 12.6729 804.845 12.3311 805.367 12.0967C805.895 11.8623 806.473 11.7451 807.103 11.7451C807.752 11.7451 808.338 11.8623 808.861 12.0967C809.388 12.3311 809.84 12.6729 810.216 13.1221C810.597 13.5664 810.887 14.106 811.087 14.7407C811.292 15.3706 811.395 16.0859 811.395 16.8867ZM809.996 17.5605V16.8721C809.996 16.2373 809.93 15.6758 809.798 15.1875C809.671 14.6992 809.483 14.2891 809.234 13.957C808.985 13.625 808.68 13.3735 808.319 13.2026C807.962 13.0317 807.557 12.9463 807.103 12.9463C806.664 12.9463 806.266 13.0317 805.909 13.2026C805.558 13.3735 805.255 13.625 805.001 13.957C804.752 14.2891 804.559 14.6992 804.422 15.1875C804.286 15.6758 804.217 16.2373 804.217 16.8721V17.5605C804.217 18.2002 804.286 18.7666 804.422 19.2598C804.559 19.748 804.754 20.1606 805.008 20.4976C805.267 20.8296 805.572 21.0811 805.924 21.252C806.28 21.4229 806.678 21.5083 807.118 21.5083C807.577 21.5083 807.984 21.4229 808.341 21.252C808.697 21.0811 808.998 20.8296 809.242 20.4976C809.491 20.1606 809.679 19.748 809.806 19.2598C809.933 18.7666 809.996 18.2002 809.996 17.5605ZM813.512 11.8916H817.042C817.843 11.8916 818.519 12.0137 819.071 12.2578C819.627 12.502 820.05 12.8633 820.338 13.3418C820.631 13.8154 820.777 14.3989 820.777 15.0923C820.777 15.5806 820.677 16.0273 820.477 16.4326C820.282 16.833 819.999 17.1748 819.627 17.458C819.261 17.7363 818.822 17.9438 818.309 18.0806L817.914 18.2344H814.596L814.581 17.0845H817.086C817.594 17.0845 818.016 16.9966 818.353 16.8208C818.69 16.6401 818.944 16.3984 819.115 16.0957C819.286 15.793 819.371 15.4585 819.371 15.0923C819.371 14.6821 819.291 14.3232 819.129 14.0156C818.968 13.708 818.714 13.4712 818.368 13.3052C818.026 13.1343 817.584 13.0488 817.042 13.0488H814.925V22.5557H813.512V11.8916ZM819.745 22.5557L817.152 17.7217L818.624 17.7144L821.253 22.4678V22.5557H819.745ZM826.703 12.8364L823.172 22.5557H821.729L825.794 11.8916H826.725L826.703 12.8364ZM829.662 22.5557L826.124 12.8364L826.102 11.8916H827.032L831.112 22.5557H829.662ZM829.478 18.6079V19.7651H823.487V18.6079H829.478Z" fill="black" fill-opacity="0.3"/>
<path d="M197.023 119.248C54.6252 85.8737 6.04686 187.295 0.669873 242.177C-3.22379 257.752 19.0258 268.32 23.4757 267.208L826.686 266.652C846.266 261.757 848.194 247.925 846.711 241.621L845.598 55.8367C834.103 90.509 796.983 148.84 740.469 104.786C669.826 49.7181 713.769 109.236 543.56 176.541C373.35 243.846 480.149 83.6487 391.706 55.8367C303.264 28.0247 375.019 160.966 197.023 119.248Z" fill="url(#paint0_linear_1_4230)"/>
<path d="M0.145709 242.198C-0.744829 263.216 19.4407 267.189 29.6448 266.548L811.648 265.907C848.16 272.059 850.238 238.567 846.713 221.053L848.939 18.5684C845.043 96.102 784.375 31.3838 745.414 54.4517C706.453 77.5196 727.047 140.956 666.936 176.84C606.824 212.723 613.503 -12.8296 538.364 106.995C463.225 226.82 385.86 71.1118 369.719 83.9273C353.578 96.7428 364.153 221.053 230.016 106.995C95.8785 -7.0626 1.25888 215.927 0.145709 242.198Z" fill="url(#paint1_linear_1_4230)"/>
<defs>
<linearGradient id="paint0_linear_1_4230" x1="423.659" y1="51.9746" x2="423.659" y2="267.288" gradientUnits="userSpaceOnUse">
<stop stop-color="#487AF9"/>
<stop offset="1" stop-color="#0185FE" stop-opacity="0"/>
</linearGradient>
<linearGradient id="paint1_linear_1_4230" x1="424.528" y1="18.5684" x2="424.528" y2="266.651" gradientUnits="userSpaceOnUse">
<stop stop-color="#284277"/>
<stop offset="1" stop-color="#290081" stop-opacity="0"/>
</linearGradient>
</defs>
</svg>
