<svg width="662" height="768" viewBox="0 0 662 768" fill="none" xmlns="http://www.w3.org/2000/svg">
<g opacity="0.5">
<path d="M401.946 167.072C400.717 86.946 456.183 39.2854 484.069 25.4709C478.544 33.7602 481.767 92.6262 484.069 121.023C486.219 171.677 427.658 227.832 398.109 249.578C403.635 240.061 402.969 190.609 401.946 167.072Z" fill="url(#paint0_linear_1_13516)"/>
<path d="M521.678 159.771C560.949 146.467 643.865 97.6034 661.363 8.57471C616.08 8.44697 524.747 38.5073 521.678 159.771Z" fill="url(#paint1_linear_1_13516)"/>
<path d="M642.944 207.74C537.95 148.797 433.419 218.741 394.278 261.081C401.032 254.941 432.141 261.593 446.851 265.686C514.697 285.947 570.545 262.104 589.988 247.65C599.951 240.243 625.676 216.566 642.944 207.74Z" fill="url(#paint2_linear_1_13516)"/>
<path d="M270.464 383.26C270.445 383.284 270.427 383.308 270.409 383.332C270.427 383.308 270.445 383.284 270.464 383.26C307.157 335.334 417.172 259.417 564.206 338.615C536.902 349.759 495.957 376.9 484.801 381.243C449.782 394.875 372.454 391.306 330.589 383.332C313.089 379.999 276.647 375.336 270.464 383.26Z" fill="url(#paint3_linear_1_13516)"/>
<path d="M210.483 452.333C193.76 465.259 173.525 485.869 159.666 492.885C168.966 491.69 188.747 495.327 197.474 497.295C256.239 519.101 356.101 504.436 398.687 494.378C412.374 491.145 445.316 469.048 465.604 461.572C355.548 381.495 249.667 422.047 210.483 452.333Z" fill="url(#paint4_linear_1_13516)"/>
<path d="M172.853 344.511C140.753 376.983 147.555 457.62 154.968 493.879C154.968 472.064 197.684 410.715 219.042 382.767C253.38 322.302 242.295 263.703 226.04 251.199C211.483 240.002 202.868 191.792 200.379 169.086C183.584 213.875 185.916 263.952 189.182 283.392C196.647 312.878 181.406 336.424 172.853 344.511Z" fill="url(#paint5_linear_1_13516)"/>
<path d="M268.228 245.134C263.284 153.641 314.151 99.2695 340.202 83.5205C330.312 98.0409 336.081 118.403 340.202 126.769C355.565 149.156 356.646 200.787 352.565 224.822C344.387 272.976 300.312 332.858 273.524 357.292C282.709 344.221 273.82 277.074 268.228 245.134Z" fill="url(#paint6_linear_1_13516)"/>
<mask id="mask0_1_13516" style="mask-type:alpha" maskUnits="userSpaceOnUse" x="14" y="0" width="126" height="410">
<path d="M46.0702 349.906C55.6263 359.517 81.5824 392.812 93.0331 409.916C63.9412 336.099 87.3376 285.71 102.672 269.743C147.954 218.841 145.149 149.822 129.398 122.087C105.827 80.5806 124.914 23.8727 137.405 0.707031C87.4437 16.3358 75.167 72.1256 75.2738 98.0668C74.5051 129.068 59.4728 149.78 52.5929 159.441C-12.8086 251.282 20.9938 324.685 46.0702 349.906Z" fill="#D9D9D9"/>
</mask>
<g mask="url(#mask0_1_13516)">
<path d="M46.0702 349.906C55.6263 359.517 81.5824 392.812 93.0331 409.916C63.9412 336.099 87.3376 285.71 102.672 269.743C147.954 218.841 145.149 149.822 129.398 122.087C105.827 80.5806 124.914 23.8727 137.405 0.707031C87.4437 16.3358 75.167 72.1256 75.2738 98.0668C74.5051 129.068 59.4728 149.78 52.5929 159.441C-12.8086 251.282 20.9938 324.685 46.0702 349.906Z" fill="url(#paint7_linear_1_13516)"/>
<path d="M108.651 127.381C94.9001 75.6162 122.469 21.5599 137.972 1.00224L128.013 -9.71826L69.1889 29.0013C63.232 46.2762 73.4696 101.785 79.333 127.381C85.3633 167.662 71.0616 201.793 63.157 213.823C23.9293 275.293 33.6696 327.058 43.4432 345.256L83.3787 416.028H108.651L79.333 365.477C49.4066 312.499 74.9509 253.421 91.4639 230.505C111.684 205.027 111.347 151.14 108.651 127.381Z" fill="url(#paint8_linear_1_13516)"/>
</g>
<mask id="mask1_1_13516" style="mask-type:alpha" maskUnits="userSpaceOnUse" x="80" y="129" width="109" height="316">
<path d="M116.247 275.435C55.9392 338.675 86.2321 413.817 108.917 443.484C116.109 379.32 135.015 348.452 143.569 341.038C182.37 306.749 182.545 265.09 177.783 248.546C173.572 221.777 182.739 158.751 187.849 130.584C164.029 137.763 151.547 188.994 147.266 213.383C142.984 237.771 127.321 264.684 116.247 275.435Z" fill="#D9D9D9" stroke="black"/>
</mask>
<g mask="url(#mask1_1_13516)">
<path d="M116.251 275.435C55.9439 338.675 87.1888 419.675 109.874 449.341C117.065 385.177 135.019 348.452 143.573 341.038C182.375 306.749 182.55 265.09 177.788 248.546C173.577 221.777 182.744 158.751 187.854 130.584C164.034 137.763 151.552 188.994 147.27 213.383C142.989 237.771 127.326 264.684 116.251 275.435Z" fill="url(#paint9_linear_1_13516)"/>
<path d="M135.331 287.482C94.7885 334.564 101.363 409.547 109.718 441.154L135.331 392.321L195.159 268.097L187.526 130.207C153.629 150.729 145.924 215.236 146.308 244.925C146.539 273.748 140.065 281.984 135.331 287.482Z" fill="url(#paint10_linear_1_13516)"/>
</g>
<mask id="mask2_1_13516" style="mask-type:alpha" maskUnits="userSpaceOnUse" x="-124" y="217" width="222" height="437">
<path d="M-85.0385 321.39C-127.309 291.617 -126.542 239.759 -120.875 217.552C-108.883 251.644 -78.6465 271.742 -65.0272 277.53C-27.8983 283.61 -8.93106 311.823 -4.08854 325.17C1.31492 339.911 29.6296 371.669 43.1115 385.706C123.947 481.541 96.3146 604.072 72.3941 653.359C53.7439 554.035 13.6348 504.7 -4.08854 492.448C-61.2126 453.218 -72.6664 407.702 -71.2527 389.848C-69.4149 344.638 -79.6775 325.371 -85.0385 321.39Z" fill="#D9D9D9"/>
</mask>
<g mask="url(#mask2_1_13516)">
<path d="M-85.0385 321.39C-127.309 291.617 -126.542 239.759 -120.875 217.552C-108.883 251.644 -78.6465 271.742 -65.0272 277.53C-27.8983 283.61 -8.93106 311.823 -4.08854 325.17C1.31492 339.911 29.6296 371.669 43.1115 385.706C123.947 481.541 96.3146 604.072 72.3941 653.359C53.7439 554.035 13.6348 504.7 -4.08854 492.448C-61.2126 453.218 -72.6664 407.702 -71.2527 389.848C-69.4149 344.638 -79.6775 325.371 -85.0385 321.39Z" fill="url(#paint11_linear_1_13516)"/>
<path d="M58.2131 595.088C53.5264 562.795 33.6317 490.502 -8.45325 459.668C-20.6501 449.028 -47.5433 409.095 -57.542 334.49C-60.5103 315.477 -71.0585 275.858 -90.2069 262.131C-91.3094 261.408 -92.3654 260.747 -93.3688 260.149C-92.2899 260.73 -91.236 261.393 -90.2069 262.131C-68.0296 276.671 -27.0815 316.301 -18.3615 374.822C-18.9809 382.723 -11.3368 401.133 24.1949 411.563C49.9314 418.251 101.12 441.763 99.9836 482.302L108.508 601.169L87.1971 653.263L69.6748 666.996L58.2131 595.088Z" fill="url(#paint12_linear_1_13516)"/>
</g>
<path d="M211.422 424.936L212.085 425.684L212.108 425.664L212.129 425.643L211.422 424.936ZM524.474 158.528C524.992 158.338 525.26 157.764 525.07 157.246C524.881 156.727 524.307 156.46 523.788 156.649L524.474 158.528ZM71.3879 867.728C70.7656 815.395 77.0625 730.453 97.9765 645.783C118.898 561.083 154.406 476.827 212.085 425.684L210.759 424.188C152.62 475.738 116.987 560.478 96.0349 645.303C75.0749 730.159 68.764 815.272 69.388 867.752L71.3879 867.728ZM212.129 425.643C252.334 385.438 316.212 323.827 377.175 269.666C407.657 242.585 437.4 217.376 463.085 197.639C488.805 177.875 510.353 163.68 524.474 158.528L523.788 156.649C509.34 161.92 487.569 176.302 461.866 196.053C436.129 215.831 406.346 241.075 375.847 268.171C314.847 322.365 250.939 384.004 210.715 424.229L212.129 425.643Z" fill="#11263C"/>
<mask id="mask3_1_13516" style="mask-type:alpha" maskUnits="userSpaceOnUse" x="-195" y="399" width="269" height="263">
<path d="M-55.5124 595.493C-121.508 568.215 -175.548 469.683 -194.319 423.827C-194.319 403.723 -189.115 399.042 -186.513 399.215C-164.315 437.926 -59.412 463.153 -18.8713 495.073C45.085 545.43 69.3443 626.937 73.4794 661.396C61.3498 623.17 -18.8713 610.638 -55.5124 595.493Z" fill="#D9D9D9"/>
</mask>
<g mask="url(#mask3_1_13516)">
<path d="M-55.5124 595.493C-121.508 568.215 -175.548 469.683 -194.319 423.827C-194.319 403.723 -189.115 399.042 -186.513 399.215C-164.315 437.926 -59.412 463.153 -18.8713 495.073C45.085 545.43 69.3443 626.937 73.4794 661.396C61.3498 623.17 -18.8713 610.638 -55.5124 595.493Z" fill="url(#paint13_linear_1_13516)"/>
<path d="M-84.112 526.314C19.5414 568.584 64.1392 631.836 73.4814 658.178L-169.188 585.043C-184.819 532.167 -215.619 425.372 -213.766 421.203C-211.914 417.035 -194.864 404.388 -186.571 398.585C-165.252 487.904 -109.382 520.954 -84.112 526.314Z" fill="url(#paint14_linear_1_13516)"/>
</g>
<path d="M77.2349 384.752C77.0905 384.517 76.7827 384.443 76.5473 384.587C76.3118 384.731 76.238 385.039 76.3823 385.275L77.2349 384.752ZM76.3823 385.275C85.4825 400.119 100.83 429.649 112.512 462.049C124.202 494.473 132.18 529.665 126.652 555.884L127.631 556.09C133.221 529.578 125.15 494.154 113.453 461.71C101.747 429.242 86.3685 399.651 77.2349 384.752L76.3823 385.275Z" fill="#11263C"/>
<path d="M55.9557 596.419C55.8052 596.187 55.4955 596.121 55.264 596.272C55.0325 596.422 54.9668 596.732 55.1173 596.964L55.9557 596.419ZM55.1173 596.964C57.0443 599.928 60.0237 607.166 63.287 617.088C66.5432 626.989 70.0648 639.508 73.087 652.992C79.1366 679.984 83.1653 710.76 79.1176 732.153L80.1001 732.339C84.1887 710.73 80.1161 679.782 74.0628 652.774C71.0337 639.258 67.5035 626.708 64.237 616.776C60.9777 606.866 57.9636 599.508 55.9557 596.419L55.1173 596.964Z" fill="#11263C"/>
<path d="M112.947 429.366C113.034 429.104 112.893 428.821 112.631 428.733C112.369 428.646 112.086 428.788 111.998 429.05L112.947 429.366ZM111.998 429.05C110.231 434.355 107.938 448.569 112.782 463.315L113.732 463.003C108.968 448.498 111.234 434.507 112.947 429.366L111.998 429.05Z" fill="#11263C"/>
<path d="M149.091 504.396C152.199 500.48 156.961 487.801 151.143 468.41" stroke="#11263C" stroke-linecap="round"/>
<path d="M150.929 502.592C151.108 496.17 160.796 486.697 190.125 496.545" stroke="#11263C" stroke-linecap="round"/>
<path d="M303.545 379.426C291.311 375.419 255.385 375.605 219.844 416.127" stroke="#11263C" stroke-linecap="round"/>
<path d="M256.568 380.238C264.128 375.644 278.961 359.452 277.813 331.431" stroke="#11263C" stroke-linecap="round"/>
<path d="M358.824 285.061C369.991 273.028 398.819 251.246 424.79 260.388" stroke="#11263C" stroke-linecap="round"/>
<path d="M386.87 258.037C391.113 256.565 401.675 248.304 401.675 222.975" stroke="#11263C" stroke-linecap="round"/>
</g>
<defs>
<linearGradient id="paint0_linear_1_13516" x1="441.118" y1="25.4709" x2="441.118" y2="249.578" gradientUnits="userSpaceOnUse">
<stop stop-color="#396A8B"/>
<stop offset="1" stop-color="#1D3F64"/>
</linearGradient>
<linearGradient id="paint1_linear_1_13516" x1="661.363" y1="8.57471" x2="542.6" y2="149.694" gradientUnits="userSpaceOnUse">
<stop stop-color="#2B6688"/>
<stop offset="0.616983" stop-color="#223E6A"/>
</linearGradient>
<linearGradient id="paint2_linear_1_13516" x1="561.701" y1="185.099" x2="313.424" y2="357.865" gradientUnits="userSpaceOnUse">
<stop stop-color="#2E566F"/>
<stop offset="0.757989" stop-color="#132240"/>
</linearGradient>
<linearGradient id="paint3_linear_1_13516" x1="561.701" y1="185.099" x2="313.424" y2="357.865" gradientUnits="userSpaceOnUse">
<stop stop-color="#2E566F"/>
<stop offset="0.757989" stop-color="#132240"/>
</linearGradient>
<linearGradient id="paint4_linear_1_13516" x1="159.666" y1="461.692" x2="465.604" y2="461.692" gradientUnits="userSpaceOnUse">
<stop stop-color="#112443"/>
<stop offset="1" stop-color="#112F51"/>
</linearGradient>
<linearGradient id="paint5_linear_1_13516" x1="195.165" y1="169.086" x2="195.165" y2="493.879" gradientUnits="userSpaceOnUse">
<stop stop-color="#121C35"/>
<stop offset="1" stop-color="#122742"/>
</linearGradient>
<linearGradient id="paint6_linear_1_13516" x1="311.246" y1="83.5205" x2="311.246" y2="357.292" gradientUnits="userSpaceOnUse">
<stop stop-color="#365D74"/>
<stop offset="0.716078" stop-color="#13283D"/>
</linearGradient>
<linearGradient id="paint7_linear_1_13516" x1="77.2549" y1="0.707031" x2="77.2549" y2="409.916" gradientUnits="userSpaceOnUse">
<stop stop-color="#A9B9A9"/>
<stop offset="1" stop-color="#91AFA3"/>
</linearGradient>
<linearGradient id="paint8_linear_1_13516" x1="86.3499" y1="-9.71826" x2="86.3499" y2="416.028" gradientUnits="userSpaceOnUse">
<stop stop-color="#3C728C"/>
<stop offset="1" stop-color="#1D3252"/>
</linearGradient>
<linearGradient id="paint9_linear_1_13516" x1="134.375" y1="130.584" x2="134.375" y2="443.484" gradientUnits="userSpaceOnUse">
<stop stop-color="#5B8697"/>
<stop offset="1" stop-color="#547A87"/>
</linearGradient>
<linearGradient id="paint10_linear_1_13516" x1="149.301" y1="130.207" x2="149.301" y2="441.154" gradientUnits="userSpaceOnUse">
<stop stop-color="#446372"/>
<stop offset="1" stop-color="#335C7C"/>
</linearGradient>
<linearGradient id="paint11_linear_1_13516" x1="-13.3037" y1="217.552" x2="34.5986" y2="522.78" gradientUnits="userSpaceOnUse">
<stop stop-color="#B3D2CA"/>
<stop offset="1" stop-color="#81ADB8"/>
</linearGradient>
<linearGradient id="paint12_linear_1_13516" x1="7.56959" y1="260.149" x2="69.4688" y2="584.777" gradientUnits="userSpaceOnUse">
<stop stop-color="#325676"/>
<stop offset="1" stop-color="#385A7B"/>
</linearGradient>
<linearGradient id="paint13_linear_1_13516" x1="-194.319" y1="419.235" x2="73.4794" y2="641.371" gradientUnits="userSpaceOnUse">
<stop stop-color="#98B9AE"/>
<stop offset="1" stop-color="#AFD5D5"/>
</linearGradient>
<linearGradient id="paint14_linear_1_13516" x1="-197.811" y1="425.622" x2="52.3567" y2="652.009" gradientUnits="userSpaceOnUse">
<stop stop-color="#48708B"/>
<stop offset="1" stop-color="#4A708F"/>
</linearGradient>
</defs>
</svg>
