<svg width="221" height="181" viewBox="0 0 221 181" fill="none" xmlns="http://www.w3.org/2000/svg">
<g opacity="0.5">
<path opacity="0.5" d="M8.80316 4.63791C8.80316 6.83436 7.01014 8.62738 4.81369 8.62738C2.61724 8.62738 0.824219 6.83436 0.824219 4.63791C0.824219 2.44146 2.61724 0.648438 4.81369 0.648438C7.01014 0.648438 8.80316 2.44146 8.80316 4.63791Z" fill="#FF8A00"/>
<path opacity="0.5" d="M39.134 8.62738C41.3373 8.62738 43.1235 6.84123 43.1235 4.63791C43.1235 2.43458 41.3373 0.648438 39.134 0.648438C36.9307 0.648438 35.1445 2.43458 35.1445 4.63791C35.1445 6.84123 36.9307 8.62738 39.134 8.62738Z" fill="#FF8A00"/>
<path opacity="0.5" d="M73.4153 8.62738C75.6186 8.62738 77.4047 6.84123 77.4047 4.63791C77.4047 2.43458 75.6186 0.648438 73.4153 0.648438C71.2119 0.648438 69.4258 2.43458 69.4258 4.63791C69.4258 6.84123 71.2119 8.62738 73.4153 8.62738Z" fill="#FF8A00"/>
<path opacity="0.5" d="M111.725 4.63791C111.725 6.83436 109.932 8.62738 107.736 8.62738C105.539 8.62738 103.746 6.83436 103.746 4.63791C103.746 2.44146 105.539 0.648438 107.736 0.648438C109.932 0.648438 111.725 2.44146 111.725 4.63791Z" fill="#FF8A00"/>
<path opacity="0.5" d="M142.025 8.62738C144.228 8.62738 146.014 6.84123 146.014 4.63791C146.014 2.43458 144.228 0.648438 142.025 0.648438C139.821 0.648438 138.035 2.43458 138.035 4.63791C138.035 6.84123 139.821 8.62738 142.025 8.62738Z" fill="#FF8A00"/>
<path opacity="0.5" d="M176.345 8.62738C178.548 8.62738 180.334 6.84123 180.334 4.63791C180.334 2.43458 178.548 0.648438 176.345 0.648438C174.142 0.648438 172.355 2.43458 172.355 4.63791C172.355 6.84123 174.142 8.62738 176.345 8.62738Z" fill="#FF8A00"/>
<path opacity="0.5" d="M210.626 8.62738C212.829 8.62738 214.615 6.84123 214.615 4.63791C214.615 2.43458 212.829 0.648438 210.626 0.648438C208.423 0.648438 206.636 2.43458 206.636 4.63791C206.636 6.84123 208.423 8.62738 210.626 8.62738Z" fill="#FF8A00"/>
<path opacity="0.5" d="M8.80316 38.9309C8.80316 41.1273 7.01014 42.9203 4.81369 42.9203C2.61724 42.9203 0.824219 41.1273 0.824219 38.9309C0.824219 36.7344 2.61724 34.9414 4.81369 34.9414C7.01014 34.9638 8.80316 36.7344 8.80316 38.9309Z" fill="#FF8A00"/>
<path opacity="0.5" d="M39.134 42.9203C41.3373 42.9203 43.1235 41.1342 43.1235 38.9309C43.1235 36.7276 41.3373 34.9414 39.134 34.9414C36.9307 34.9414 35.1445 36.7276 35.1445 38.9309C35.1445 41.1342 36.9307 42.9203 39.134 42.9203Z" fill="#FF8A00"/>
<path opacity="0.5" d="M73.4153 42.9203C75.6186 42.9203 77.4047 41.1342 77.4047 38.9309C77.4047 36.7276 75.6186 34.9414 73.4153 34.9414C71.2119 34.9414 69.4258 36.7276 69.4258 38.9309C69.4258 41.1342 71.2119 42.9203 73.4153 42.9203Z" fill="#FF8A00"/>
<path opacity="0.5" d="M111.725 38.9309C111.725 41.1273 109.932 42.9203 107.736 42.9203C105.539 42.9203 103.746 41.1273 103.746 38.9309C103.746 36.7344 105.539 34.9414 107.736 34.9414C109.932 34.9638 111.725 36.7344 111.725 38.9309Z" fill="#FF8A00"/>
<path opacity="0.5" d="M142.025 42.9203C144.228 42.9203 146.014 41.1342 146.014 38.9309C146.014 36.7276 144.228 34.9414 142.025 34.9414C139.821 34.9414 138.035 36.7276 138.035 38.9309C138.035 41.1342 139.821 42.9203 142.025 42.9203Z" fill="#FF8A00"/>
<path opacity="0.5" d="M176.345 42.9203C178.548 42.9203 180.334 41.1342 180.334 38.9309C180.334 36.7276 178.548 34.9414 176.345 34.9414C174.142 34.9414 172.355 36.7276 172.355 38.9309C172.355 41.1342 174.142 42.9203 176.345 42.9203Z" fill="#FF8A00"/>
<path opacity="0.5" d="M210.626 42.9203C212.83 42.9203 214.616 41.1342 214.616 38.9309C214.616 36.7276 212.83 34.9414 210.626 34.9414C208.423 34.9414 206.637 36.7276 206.637 38.9309C206.637 41.1342 208.423 42.9203 210.626 42.9203Z" fill="#FF8A00"/>
<path opacity="0.5" d="M8.80316 73.2434C8.80316 75.4398 7.01014 77.2328 4.81369 77.2328C2.61724 77.2328 0.824219 75.4398 0.824219 73.2434C0.824219 71.0469 2.61724 69.2539 4.81369 69.2539C7.01014 69.2539 8.80316 71.0469 8.80316 73.2434Z" fill="#FF8A00"/>
<path opacity="0.5" d="M39.134 77.2328C41.3373 77.2328 43.1235 75.4467 43.1235 73.2434C43.1235 71.0401 41.3373 69.2539 39.134 69.2539C36.9307 69.2539 35.1445 71.0401 35.1445 73.2434C35.1445 75.4467 36.9307 77.2328 39.134 77.2328Z" fill="#FF8A00"/>
<path opacity="0.5" d="M73.4153 77.2328C75.6186 77.2328 77.4047 75.4467 77.4047 73.2434C77.4047 71.0401 75.6186 69.2539 73.4153 69.2539C71.2119 69.2539 69.4258 71.0401 69.4258 73.2434C69.4258 75.4467 71.2119 77.2328 73.4153 77.2328Z" fill="#FF8A00"/>
<path opacity="0.5" d="M111.725 73.2434C111.725 75.4398 109.932 77.2328 107.736 77.2328C105.539 77.2328 103.746 75.4398 103.746 73.2434C103.746 71.0469 105.539 69.2539 107.736 69.2539C109.932 69.2539 111.725 71.0469 111.725 73.2434Z" fill="#FF8A00"/>
<path opacity="0.5" d="M142.025 77.2328C144.228 77.2328 146.014 75.4467 146.014 73.2434C146.014 71.0401 144.228 69.2539 142.025 69.2539C139.821 69.2539 138.035 71.0401 138.035 73.2434C138.035 75.4467 139.821 77.2328 142.025 77.2328Z" fill="#FF8A00"/>
<path opacity="0.5" d="M176.345 77.2328C178.548 77.2328 180.334 75.4467 180.334 73.2434C180.334 71.0401 178.548 69.2539 176.345 69.2539C174.142 69.2539 172.355 71.0401 172.355 73.2434C172.355 75.4467 174.142 77.2328 176.345 77.2328Z" fill="#FF8A00"/>
<path opacity="0.5" d="M210.626 77.2328C212.83 77.2328 214.616 75.4467 214.616 73.2434C214.616 71.0401 212.83 69.2539 210.626 69.2539C208.423 69.2539 206.637 71.0401 206.637 73.2434C206.637 75.4467 208.423 77.2328 210.626 77.2328Z" fill="#FF8A00"/>
<path opacity="0.5" d="M8.80316 107.536C8.80316 109.733 7.01014 111.526 4.81369 111.526C2.61724 111.526 0.824219 109.733 0.824219 107.536C0.824219 105.34 2.61724 103.547 4.81369 103.547C7.01014 103.569 8.80316 105.34 8.80316 107.536Z" fill="#FF8A00"/>
<path opacity="0.5" d="M39.134 111.526C41.3373 111.526 43.1235 109.74 43.1235 107.536C43.1235 105.333 41.3373 103.547 39.134 103.547C36.9307 103.547 35.1445 105.333 35.1445 107.536C35.1445 109.74 36.9307 111.526 39.134 111.526Z" fill="#FF8A00"/>
<path opacity="0.5" d="M73.4153 111.526C75.6186 111.526 77.4047 109.74 77.4047 107.536C77.4047 105.333 75.6186 103.547 73.4153 103.547C71.2119 103.547 69.4258 105.333 69.4258 107.536C69.4258 109.74 71.2119 111.526 73.4153 111.526Z" fill="#FF8A00"/>
<path opacity="0.5" d="M111.725 107.536C111.725 109.733 109.932 111.526 107.736 111.526C105.539 111.526 103.746 109.733 103.746 107.536C103.746 105.34 105.539 103.547 107.736 103.547C109.932 103.569 111.725 105.34 111.725 107.536Z" fill="#FF8A00"/>
<path opacity="0.5" d="M142.025 111.526C144.228 111.526 146.014 109.74 146.014 107.536C146.014 105.333 144.228 103.547 142.025 103.547C139.821 103.547 138.035 105.333 138.035 107.536C138.035 109.74 139.821 111.526 142.025 111.526Z" fill="#FF8A00"/>
<path opacity="0.5" d="M176.345 111.526C178.548 111.526 180.334 109.74 180.334 107.536C180.334 105.333 178.548 103.547 176.345 103.547C174.142 103.547 172.355 105.333 172.355 107.536C172.355 109.74 174.142 111.526 176.345 111.526Z" fill="#FF8A00"/>
<path opacity="0.5" d="M210.626 111.526C212.83 111.526 214.616 109.74 214.616 107.536C214.616 105.333 212.83 103.547 210.626 103.547C208.423 103.547 206.637 105.333 206.637 107.536C206.637 109.74 208.423 111.526 210.626 111.526Z" fill="#FF8A00"/>
<path opacity="0.5" d="M8.80316 141.845C8.80316 144.041 7.01014 145.834 4.81369 145.834C2.61724 145.834 0.824219 144.041 0.824219 141.845C0.824219 139.648 2.61724 137.855 4.81369 137.855C7.01014 137.855 8.80316 139.648 8.80316 141.845Z" fill="#FF8A00"/>
<path opacity="0.5" d="M39.134 145.834C41.3373 145.834 43.1235 144.048 43.1235 141.845C43.1235 139.642 41.3373 137.855 39.134 137.855C36.9307 137.855 35.1445 139.642 35.1445 141.845C35.1445 144.048 36.9307 145.834 39.134 145.834Z" fill="#FF8A00"/>
<path opacity="0.5" d="M73.4153 145.834C75.6186 145.834 77.4047 144.048 77.4047 141.845C77.4047 139.642 75.6186 137.855 73.4153 137.855C71.2119 137.855 69.4258 139.642 69.4258 141.845C69.4258 144.048 71.2119 145.834 73.4153 145.834Z" fill="#FF8A00"/>
<path opacity="0.5" d="M111.725 141.845C111.725 144.041 109.932 145.834 107.736 145.834C105.539 145.834 103.746 144.041 103.746 141.845C103.746 139.648 105.539 137.855 107.736 137.855C109.932 137.855 111.725 139.648 111.725 141.845Z" fill="#FF8A00"/>
<path opacity="0.5" d="M142.025 145.834C144.228 145.834 146.014 144.048 146.014 141.845C146.014 139.642 144.228 137.855 142.025 137.855C139.821 137.855 138.035 139.642 138.035 141.845C138.035 144.048 139.821 145.834 142.025 145.834Z" fill="#FF8A00"/>
<path opacity="0.5" d="M176.345 145.834C178.548 145.834 180.334 144.048 180.334 141.845C180.334 139.642 178.548 137.855 176.345 137.855C174.142 137.855 172.355 139.642 172.355 141.845C172.355 144.048 174.142 145.834 176.345 145.834Z" fill="#FF8A00"/>
<path opacity="0.5" d="M210.626 145.834C212.83 145.834 214.616 144.048 214.616 141.845C214.616 139.642 212.83 137.855 210.626 137.855C208.423 137.855 206.637 139.642 206.637 141.845C206.637 144.048 208.423 145.834 210.626 145.834Z" fill="#FF8A00"/>
<path opacity="0.5" d="M8.80316 176.165C8.80316 178.362 7.01014 180.155 4.81369 180.155C2.61724 180.155 0.824219 178.362 0.824219 176.165C0.824219 173.969 2.61724 172.176 4.81369 172.176C7.01014 172.176 8.80316 173.946 8.80316 176.165Z" fill="#FF8A00"/>
<path opacity="0.5" d="M39.134 180.155C41.3373 180.155 43.1235 178.369 43.1235 176.165C43.1235 173.962 41.3373 172.176 39.134 172.176C36.9307 172.176 35.1445 173.962 35.1445 176.165C35.1445 178.369 36.9307 180.155 39.134 180.155Z" fill="#FF8A00"/>
<path opacity="0.5" d="M73.4153 180.155C75.6186 180.155 77.4047 178.369 77.4047 176.165C77.4047 173.962 75.6186 172.176 73.4153 172.176C71.2119 172.176 69.4258 173.962 69.4258 176.165C69.4258 178.369 71.2119 180.155 73.4153 180.155Z" fill="#FF8A00"/>
<path opacity="0.5" d="M111.725 176.165C111.725 178.362 109.932 180.155 107.736 180.155C105.539 180.155 103.746 178.362 103.746 176.165C103.746 173.969 105.539 172.176 107.736 172.176C109.932 172.176 111.725 173.946 111.725 176.165Z" fill="#FF8A00"/>
<path opacity="0.5" d="M142.025 180.155C144.228 180.155 146.014 178.369 146.014 176.165C146.014 173.962 144.228 172.176 142.025 172.176C139.821 172.176 138.035 173.962 138.035 176.165C138.035 178.369 139.821 180.155 142.025 180.155Z" fill="#FF8A00"/>
<path opacity="0.5" d="M176.345 180.155C178.548 180.155 180.334 178.369 180.334 176.165C180.334 173.962 178.548 172.176 176.345 172.176C174.142 172.176 172.355 173.962 172.355 176.165C172.355 178.369 174.142 180.155 176.345 180.155Z" fill="#FF8A00"/>
<path opacity="0.5" d="M210.626 180.155C212.83 180.155 214.616 178.369 214.616 176.165C214.616 173.962 212.83 172.176 210.626 172.176C208.423 172.176 206.637 173.962 206.637 176.165C206.637 178.369 208.423 180.155 210.626 180.155Z" fill="#FF8A00"/>
</g>
</svg>
