<svg width="849" height="268" viewBox="0 0 849 268" fill="none" xmlns="http://www.w3.org/2000/svg">
<path d="M259.328 0.724609V267.72" stroke="#487AF9"/>
<path d="M94.6797 0.724609V267.72" stroke="#487AF9"/>
<path d="M423.969 0.724609V267.72" stroke="#487AF9"/>
<path d="M588.617 0.724609V267.72" stroke="#487AF9"/>
<path d="M753.266 0.724609V267.72" stroke="#487AF9"/>
<path d="M34.4922 16.5132H35.459C35.9326 16.5132 36.3232 16.4351 36.6309 16.2788C36.9434 16.1177 37.1753 15.9004 37.3267 15.627C37.4829 15.3486 37.561 15.0361 37.561 14.6895C37.561 14.2793 37.4927 13.9351 37.356 13.6567C37.2192 13.3784 37.0142 13.1685 36.7407 13.0269C36.4673 12.8853 36.1206 12.8145 35.7007 12.8145C35.3198 12.8145 34.9829 12.8901 34.6899 13.0415C34.4019 13.188 34.1748 13.3979 34.0088 13.6714C33.8477 13.9448 33.7671 14.2671 33.7671 14.6382H32.4121C32.4121 14.0962 32.5488 13.603 32.8223 13.1587C33.0957 12.7144 33.479 12.3604 33.9722 12.0967C34.4702 11.833 35.0464 11.7012 35.7007 11.7012C36.3452 11.7012 36.9092 11.8159 37.3926 12.0454C37.876 12.27 38.252 12.6069 38.5205 13.0562C38.7891 13.5005 38.9233 14.0547 38.9233 14.7188C38.9233 14.9873 38.8599 15.2754 38.7329 15.583C38.6108 15.8857 38.418 16.1689 38.1543 16.4326C37.8955 16.6963 37.5586 16.9136 37.1436 17.0845C36.7285 17.2505 36.2305 17.3335 35.6494 17.3335H34.4922V16.5132ZM34.4922 17.6265V16.8135H35.6494C36.3281 16.8135 36.8896 16.894 37.334 17.0552C37.7783 17.2163 38.1274 17.4312 38.3813 17.6997C38.6401 17.9683 38.8208 18.2637 38.9233 18.5859C39.0308 18.9033 39.0845 19.2207 39.0845 19.5381C39.0845 20.0361 38.999 20.478 38.8281 20.8638C38.6621 21.2495 38.4253 21.5767 38.1177 21.8452C37.8149 22.1138 37.4585 22.3164 37.0483 22.4531C36.6382 22.5898 36.1914 22.6582 35.708 22.6582C35.2441 22.6582 34.8071 22.5923 34.397 22.4604C33.9917 22.3286 33.6328 22.1382 33.3203 21.8892C33.0078 21.6353 32.7637 21.3252 32.5879 20.959C32.4121 20.5879 32.3242 20.1655 32.3242 19.6919H33.6792C33.6792 20.063 33.7598 20.3877 33.9209 20.666C34.0869 20.9443 34.3213 21.1616 34.624 21.3179C34.9316 21.4692 35.293 21.5449 35.708 21.5449C36.123 21.5449 36.4795 21.4741 36.7773 21.3325C37.0801 21.186 37.312 20.9663 37.4731 20.6733C37.6392 20.3804 37.7222 20.0117 37.7222 19.5674C37.7222 19.123 37.6294 18.7593 37.4438 18.4761C37.2583 18.188 36.9946 17.9756 36.6528 17.8389C36.3159 17.6973 35.918 17.6265 35.459 17.6265H34.4922ZM45.4053 11.7891V22.5117H44.0503V13.481L41.3184 14.4771V13.2539L45.1929 11.7891H45.4053ZM54.2529 11.8477L49.8071 23.4272H48.6426L53.0957 11.8477H54.2529ZM62.2803 16.3301V17.9561C62.2803 18.8301 62.2021 19.5674 62.0459 20.168C61.8896 20.7686 61.665 21.252 61.3721 21.6182C61.0791 21.9844 60.7251 22.2505 60.3101 22.4165C59.8999 22.5776 59.436 22.6582 58.9185 22.6582C58.5083 22.6582 58.1299 22.6069 57.7832 22.5044C57.4365 22.4019 57.124 22.2383 56.8457 22.0137C56.5723 21.7842 56.3379 21.4863 56.1426 21.1201C55.9473 20.7539 55.7983 20.3096 55.6958 19.7871C55.5933 19.2646 55.542 18.6543 55.542 17.9561V16.3301C55.542 15.4561 55.6201 14.7236 55.7764 14.1328C55.9375 13.542 56.1646 13.0684 56.4575 12.7119C56.7505 12.3506 57.1021 12.0918 57.5122 11.9355C57.9272 11.7793 58.3911 11.7012 58.9038 11.7012C59.3188 11.7012 59.6997 11.7524 60.0464 11.855C60.3979 11.9526 60.7104 12.1113 60.9839 12.3311C61.2573 12.5459 61.4893 12.834 61.6797 13.1953C61.875 13.5518 62.0239 13.9888 62.1265 14.5063C62.229 15.0239 62.2803 15.6318 62.2803 16.3301ZM60.918 18.1758V16.103C60.918 15.6245 60.8887 15.2046 60.8301 14.8433C60.7764 14.4771 60.6958 14.1646 60.5884 13.9058C60.481 13.647 60.3442 13.437 60.1782 13.2759C60.0171 13.1147 59.8291 12.9976 59.6143 12.9243C59.4043 12.8462 59.1675 12.8071 58.9038 12.8071C58.5815 12.8071 58.2959 12.8682 58.0469 12.9902C57.7979 13.1074 57.5879 13.2954 57.417 13.5542C57.251 13.813 57.124 14.1523 57.0361 14.5723C56.9482 14.9922 56.9043 15.5024 56.9043 16.103V18.1758C56.9043 18.6543 56.9312 19.0767 56.9849 19.4429C57.0435 19.8091 57.1289 20.1265 57.2412 20.395C57.3535 20.6587 57.4902 20.876 57.6514 21.0469C57.8125 21.2178 57.998 21.3447 58.208 21.4277C58.4229 21.5059 58.6597 21.5449 58.9185 21.5449C59.2505 21.5449 59.541 21.4814 59.79 21.3545C60.0391 21.2275 60.2466 21.0298 60.4126 20.7612C60.5835 20.4878 60.7104 20.1387 60.7935 19.7139C60.8765 19.2842 60.918 18.7715 60.918 18.1758ZM70.7471 19.626C70.7471 20.2754 70.5957 20.8271 70.293 21.2812C69.9951 21.7305 69.5898 22.0723 69.0771 22.3066C68.5693 22.541 67.9956 22.6582 67.356 22.6582C66.7163 22.6582 66.1401 22.541 65.6274 22.3066C65.1147 22.0723 64.7095 21.7305 64.4116 21.2812C64.1138 20.8271 63.9648 20.2754 63.9648 19.626C63.9648 19.2012 64.0454 18.813 64.2065 18.4614C64.3726 18.105 64.6045 17.7949 64.9023 17.5312C65.2051 17.2676 65.5615 17.0649 65.9717 16.9233C66.3867 16.7769 66.8433 16.7036 67.3413 16.7036C67.9956 16.7036 68.5791 16.8306 69.0918 17.0845C69.6045 17.3335 70.0073 17.6777 70.3003 18.1172C70.5981 18.5566 70.7471 19.0596 70.7471 19.626ZM69.3848 19.5967C69.3848 19.2012 69.2993 18.8521 69.1284 18.5493C68.9575 18.2417 68.7183 18.0024 68.4106 17.8315C68.103 17.6606 67.7466 17.5752 67.3413 17.5752C66.9263 17.5752 66.5674 17.6606 66.2646 17.8315C65.9668 18.0024 65.7349 18.2417 65.5688 18.5493C65.4028 18.8521 65.3198 19.2012 65.3198 19.5967C65.3198 20.0068 65.4004 20.3584 65.5615 20.6514C65.7275 20.9395 65.9619 21.1616 66.2646 21.3179C66.5723 21.4692 66.936 21.5449 67.356 21.5449C67.7759 21.5449 68.1372 21.4692 68.4399 21.3179C68.7427 21.1616 68.9746 20.9395 69.1357 20.6514C69.3018 20.3584 69.3848 20.0068 69.3848 19.5967ZM70.498 14.6235C70.498 15.1411 70.3613 15.6074 70.0879 16.0225C69.8145 16.4375 69.4409 16.7646 68.9673 17.0039C68.4937 17.2432 67.9565 17.3628 67.356 17.3628C66.7456 17.3628 66.2012 17.2432 65.7227 17.0039C65.249 16.7646 64.8779 16.4375 64.6094 16.0225C64.3408 15.6074 64.2065 15.1411 64.2065 14.6235C64.2065 14.0034 64.3408 13.4761 64.6094 13.0415C64.8828 12.6069 65.2563 12.2749 65.73 12.0454C66.2036 11.8159 66.7432 11.7012 67.3486 11.7012C67.959 11.7012 68.501 11.8159 68.9746 12.0454C69.4482 12.2749 69.8193 12.6069 70.0879 13.0415C70.3613 13.4761 70.498 14.0034 70.498 14.6235ZM69.1431 14.6455C69.1431 14.2891 69.0674 13.9741 68.916 13.7007C68.7646 13.4272 68.5547 13.2124 68.2861 13.0562C68.0176 12.895 67.7051 12.8145 67.3486 12.8145C66.9922 12.8145 66.6797 12.8901 66.4111 13.0415C66.1475 13.188 65.9399 13.3979 65.7886 13.6714C65.6421 13.9448 65.5688 14.2695 65.5688 14.6455C65.5688 15.0117 65.6421 15.3315 65.7886 15.605C65.9399 15.8784 66.1499 16.0908 66.4185 16.2422C66.687 16.3936 66.9995 16.4692 67.356 16.4692C67.7124 16.4692 68.0225 16.3936 68.2861 16.2422C68.5547 16.0908 68.7646 15.8784 68.916 15.605C69.0674 15.3315 69.1431 15.0117 69.1431 14.6455Z" fill="black" fill-opacity="0.3"/>
<path d="M167.945 16.3301V17.9561C167.945 18.8301 167.867 19.5674 167.711 20.168C167.555 20.7686 167.33 21.252 167.037 21.6182C166.744 21.9844 166.39 22.2505 165.975 22.4165C165.565 22.5776 165.101 22.6582 164.583 22.6582C164.173 22.6582 163.795 22.6069 163.448 22.5044C163.102 22.4019 162.789 22.2383 162.511 22.0137C162.237 21.7842 162.003 21.4863 161.808 21.1201C161.612 20.7539 161.463 20.3096 161.361 19.7871C161.258 19.2646 161.207 18.6543 161.207 17.9561V16.3301C161.207 15.4561 161.285 14.7236 161.441 14.1328C161.602 13.542 161.83 13.0684 162.122 12.7119C162.415 12.3506 162.767 12.0918 163.177 11.9355C163.592 11.7793 164.056 11.7012 164.569 11.7012C164.984 11.7012 165.365 11.7524 165.711 11.855C166.063 11.9526 166.375 12.1113 166.649 12.3311C166.922 12.5459 167.154 12.834 167.345 13.1953C167.54 13.5518 167.689 13.9888 167.791 14.5063C167.894 15.0239 167.945 15.6318 167.945 16.3301ZM166.583 18.1758V16.103C166.583 15.6245 166.554 15.2046 166.495 14.8433C166.441 14.4771 166.361 14.1646 166.253 13.9058C166.146 13.647 166.009 13.437 165.843 13.2759C165.682 13.1147 165.494 12.9976 165.279 12.9243C165.069 12.8462 164.832 12.8071 164.569 12.8071C164.247 12.8071 163.961 12.8682 163.712 12.9902C163.463 13.1074 163.253 13.2954 163.082 13.5542C162.916 13.813 162.789 14.1523 162.701 14.5723C162.613 14.9922 162.569 15.5024 162.569 16.103V18.1758C162.569 18.6543 162.596 19.0767 162.65 19.4429C162.708 19.8091 162.794 20.1265 162.906 20.395C163.018 20.6587 163.155 20.876 163.316 21.0469C163.477 21.2178 163.663 21.3447 163.873 21.4277C164.088 21.5059 164.325 21.5449 164.583 21.5449C164.915 21.5449 165.206 21.4814 165.455 21.3545C165.704 21.2275 165.912 21.0298 166.078 20.7612C166.248 20.4878 166.375 20.1387 166.458 19.7139C166.541 19.2842 166.583 18.7715 166.583 18.1758ZM174.142 11.7891V22.5117H172.787V13.481L170.055 14.4771V13.2539L173.929 11.7891H174.142ZM182.989 11.8477L178.543 23.4272H177.379L181.832 11.8477H182.989ZM191.017 16.3301V17.9561C191.017 18.8301 190.938 19.5674 190.782 20.168C190.626 20.7686 190.401 21.252 190.108 21.6182C189.815 21.9844 189.461 22.2505 189.046 22.4165C188.636 22.5776 188.172 22.6582 187.655 22.6582C187.245 22.6582 186.866 22.6069 186.519 22.5044C186.173 22.4019 185.86 22.2383 185.582 22.0137C185.309 21.7842 185.074 21.4863 184.879 21.1201C184.684 20.7539 184.535 20.3096 184.432 19.7871C184.33 19.2646 184.278 18.6543 184.278 17.9561V16.3301C184.278 15.4561 184.356 14.7236 184.513 14.1328C184.674 13.542 184.901 13.0684 185.194 12.7119C185.487 12.3506 185.838 12.0918 186.248 11.9355C186.664 11.7793 187.127 11.7012 187.64 11.7012C188.055 11.7012 188.436 11.7524 188.783 11.855C189.134 11.9526 189.447 12.1113 189.72 12.3311C189.994 12.5459 190.226 12.834 190.416 13.1953C190.611 13.5518 190.76 13.9888 190.863 14.5063C190.965 15.0239 191.017 15.6318 191.017 16.3301ZM189.654 18.1758V16.103C189.654 15.6245 189.625 15.2046 189.566 14.8433C189.513 14.4771 189.432 14.1646 189.325 13.9058C189.217 13.647 189.081 13.437 188.914 13.2759C188.753 13.1147 188.565 12.9976 188.351 12.9243C188.141 12.8462 187.904 12.8071 187.64 12.8071C187.318 12.8071 187.032 12.8682 186.783 12.9902C186.534 13.1074 186.324 13.2954 186.153 13.5542C185.987 13.813 185.86 14.1523 185.772 14.5723C185.685 14.9922 185.641 15.5024 185.641 16.103V18.1758C185.641 18.6543 185.667 19.0767 185.721 19.4429C185.78 19.8091 185.865 20.1265 185.977 20.395C186.09 20.6587 186.227 20.876 186.388 21.0469C186.549 21.2178 186.734 21.3447 186.944 21.4277C187.159 21.5059 187.396 21.5449 187.655 21.5449C187.987 21.5449 188.277 21.4814 188.526 21.3545C188.775 21.2275 188.983 21.0298 189.149 20.7612C189.32 20.4878 189.447 20.1387 189.53 19.7139C189.613 19.2842 189.654 18.7715 189.654 18.1758ZM194.107 21.3765H194.247C195.028 21.3765 195.663 21.2666 196.151 21.0469C196.639 20.8271 197.015 20.5317 197.279 20.1606C197.542 19.7896 197.723 19.3721 197.821 18.9082C197.918 18.4395 197.967 17.9585 197.967 17.4653V15.832C197.967 15.3486 197.911 14.9189 197.799 14.543C197.691 14.167 197.54 13.8521 197.345 13.5981C197.154 13.3442 196.937 13.1514 196.693 13.0195C196.449 12.8877 196.19 12.8218 195.916 12.8218C195.604 12.8218 195.323 12.8853 195.074 13.0122C194.83 13.1343 194.622 13.3076 194.452 13.5322C194.286 13.7568 194.159 14.0205 194.071 14.3232C193.983 14.626 193.939 14.9556 193.939 15.312C193.939 15.6294 193.978 15.937 194.056 16.2349C194.134 16.5327 194.254 16.8013 194.415 17.0405C194.576 17.2798 194.776 17.4702 195.016 17.6118C195.26 17.7485 195.545 17.8169 195.872 17.8169C196.175 17.8169 196.458 17.7583 196.722 17.6411C196.991 17.519 197.227 17.3555 197.433 17.1504C197.643 16.9404 197.809 16.7036 197.931 16.4399C198.058 16.1763 198.131 15.9004 198.15 15.6123H198.795C198.795 16.0176 198.714 16.418 198.553 16.8135C198.397 17.2041 198.177 17.5605 197.894 17.8828C197.611 18.2051 197.279 18.4639 196.898 18.6592C196.517 18.8496 196.102 18.9448 195.653 18.9448C195.125 18.9448 194.669 18.8423 194.283 18.6372C193.897 18.4321 193.58 18.1587 193.331 17.8169C193.087 17.4751 192.904 17.0942 192.782 16.6743C192.664 16.2495 192.606 15.8198 192.606 15.3853C192.606 14.8774 192.677 14.4014 192.818 13.957C192.96 13.5127 193.17 13.1221 193.448 12.7852C193.727 12.4434 194.071 12.1772 194.481 11.9868C194.896 11.7964 195.374 11.7012 195.916 11.7012C196.527 11.7012 197.047 11.8232 197.477 12.0674C197.906 12.3115 198.255 12.6387 198.524 13.0488C198.797 13.459 198.997 13.9204 199.124 14.4331C199.251 14.9458 199.315 15.4731 199.315 16.0151V16.5059C199.315 17.0576 199.278 17.6191 199.205 18.1904C199.137 18.7568 199.002 19.2988 198.802 19.8164C198.607 20.334 198.321 20.7979 197.945 21.208C197.569 21.6133 197.079 21.9355 196.473 22.1748C195.872 22.4092 195.13 22.5264 194.247 22.5264H194.107V21.3765Z" fill="black" fill-opacity="0.3"/>
<path d="M335.372 16.3301V17.9561C335.372 18.8301 335.294 19.5674 335.138 20.168C334.981 20.7686 334.757 21.252 334.464 21.6182C334.171 21.9844 333.817 22.2505 333.402 22.4165C332.992 22.5776 332.528 22.6582 332.01 22.6582C331.6 22.6582 331.221 22.6069 330.875 22.5044C330.528 22.4019 330.216 22.2383 329.937 22.0137C329.664 21.7842 329.43 21.4863 329.234 21.1201C329.039 20.7539 328.89 20.3096 328.787 19.7871C328.685 19.2646 328.634 18.6543 328.634 17.9561V16.3301C328.634 15.4561 328.712 14.7236 328.868 14.1328C329.029 13.542 329.256 13.0684 329.549 12.7119C329.842 12.3506 330.194 12.0918 330.604 11.9355C331.019 11.7793 331.483 11.7012 331.995 11.7012C332.41 11.7012 332.791 11.7524 333.138 11.855C333.49 11.9526 333.802 12.1113 334.076 12.3311C334.349 12.5459 334.581 12.834 334.771 13.1953C334.967 13.5518 335.116 13.9888 335.218 14.5063C335.321 15.0239 335.372 15.6318 335.372 16.3301ZM334.01 18.1758V16.103C334.01 15.6245 333.98 15.2046 333.922 14.8433C333.868 14.4771 333.787 14.1646 333.68 13.9058C333.573 13.647 333.436 13.437 333.27 13.2759C333.109 13.1147 332.921 12.9976 332.706 12.9243C332.496 12.8462 332.259 12.8071 331.995 12.8071C331.673 12.8071 331.388 12.8682 331.138 12.9902C330.889 13.1074 330.68 13.2954 330.509 13.5542C330.343 13.813 330.216 14.1523 330.128 14.5723C330.04 14.9922 329.996 15.5024 329.996 16.103V18.1758C329.996 18.6543 330.023 19.0767 330.076 19.4429C330.135 19.8091 330.221 20.1265 330.333 20.395C330.445 20.6587 330.582 20.876 330.743 21.0469C330.904 21.2178 331.09 21.3447 331.3 21.4277C331.514 21.5059 331.751 21.5449 332.01 21.5449C332.342 21.5449 332.633 21.4814 332.882 21.3545C333.131 21.2275 333.338 21.0298 333.504 20.7612C333.675 20.4878 333.802 20.1387 333.885 19.7139C333.968 19.2842 334.01 18.7715 334.01 18.1758ZM344.102 21.3984V22.5117H337.122V21.5376L340.616 17.6484C341.046 17.1699 341.378 16.7646 341.612 16.4326C341.851 16.0957 342.017 15.7954 342.11 15.5317C342.208 15.2632 342.257 14.9897 342.257 14.7114C342.257 14.3599 342.183 14.0425 342.037 13.7593C341.895 13.4712 341.685 13.2417 341.407 13.0708C341.129 12.8999 340.792 12.8145 340.396 12.8145C339.923 12.8145 339.527 12.9072 339.21 13.0928C338.897 13.2734 338.663 13.5273 338.507 13.8545C338.35 14.1816 338.272 14.5576 338.272 14.9824H336.917C336.917 14.3818 337.049 13.8325 337.313 13.3345C337.576 12.8364 337.967 12.4409 338.485 12.1479C339.002 11.8501 339.639 11.7012 340.396 11.7012C341.07 11.7012 341.646 11.8208 342.125 12.0601C342.603 12.2944 342.97 12.6265 343.223 13.0562C343.482 13.481 343.612 13.979 343.612 14.5503C343.612 14.8628 343.558 15.1802 343.451 15.5024C343.348 15.8198 343.204 16.1372 343.018 16.4546C342.838 16.772 342.625 17.0845 342.381 17.3921C342.142 17.6997 341.886 18.0024 341.612 18.3003L338.756 21.3984H344.102ZM350.416 11.8477L345.97 23.4272H344.805L349.259 11.8477H350.416ZM358.443 16.3301V17.9561C358.443 18.8301 358.365 19.5674 358.209 20.168C358.053 20.7686 357.828 21.252 357.535 21.6182C357.242 21.9844 356.888 22.2505 356.473 22.4165C356.063 22.5776 355.599 22.6582 355.081 22.6582C354.671 22.6582 354.293 22.6069 353.946 22.5044C353.599 22.4019 353.287 22.2383 353.009 22.0137C352.735 21.7842 352.501 21.4863 352.305 21.1201C352.11 20.7539 351.961 20.3096 351.859 19.7871C351.756 19.2646 351.705 18.6543 351.705 17.9561V16.3301C351.705 15.4561 351.783 14.7236 351.939 14.1328C352.1 13.542 352.327 13.0684 352.62 12.7119C352.913 12.3506 353.265 12.0918 353.675 11.9355C354.09 11.7793 354.554 11.7012 355.067 11.7012C355.482 11.7012 355.863 11.7524 356.209 11.855C356.561 11.9526 356.873 12.1113 357.147 12.3311C357.42 12.5459 357.652 12.834 357.843 13.1953C358.038 13.5518 358.187 13.9888 358.289 14.5063C358.392 15.0239 358.443 15.6318 358.443 16.3301ZM357.081 18.1758V16.103C357.081 15.6245 357.052 15.2046 356.993 14.8433C356.939 14.4771 356.859 14.1646 356.751 13.9058C356.644 13.647 356.507 13.437 356.341 13.2759C356.18 13.1147 355.992 12.9976 355.777 12.9243C355.567 12.8462 355.33 12.8071 355.067 12.8071C354.744 12.8071 354.459 12.8682 354.21 12.9902C353.961 13.1074 353.751 13.2954 353.58 13.5542C353.414 13.813 353.287 14.1523 353.199 14.5723C353.111 14.9922 353.067 15.5024 353.067 16.103V18.1758C353.067 18.6543 353.094 19.0767 353.148 19.4429C353.206 19.8091 353.292 20.1265 353.404 20.395C353.516 20.6587 353.653 20.876 353.814 21.0469C353.975 21.2178 354.161 21.3447 354.371 21.4277C354.586 21.5059 354.823 21.5449 355.081 21.5449C355.413 21.5449 355.704 21.4814 355.953 21.3545C356.202 21.2275 356.409 21.0298 356.576 20.7612C356.746 20.4878 356.873 20.1387 356.956 19.7139C357.039 19.2842 357.081 18.7715 357.081 18.1758ZM361.534 21.3765H361.673C362.454 21.3765 363.089 21.2666 363.577 21.0469C364.066 20.8271 364.442 20.5317 364.705 20.1606C364.969 19.7896 365.15 19.3721 365.247 18.9082C365.345 18.4395 365.394 17.9585 365.394 17.4653V15.832C365.394 15.3486 365.338 14.9189 365.225 14.543C365.118 14.167 364.967 13.8521 364.771 13.5981C364.581 13.3442 364.364 13.1514 364.119 13.0195C363.875 12.8877 363.617 12.8218 363.343 12.8218C363.031 12.8218 362.75 12.8853 362.501 13.0122C362.257 13.1343 362.049 13.3076 361.878 13.5322C361.712 13.7568 361.585 14.0205 361.497 14.3232C361.409 14.626 361.366 14.9556 361.366 15.312C361.366 15.6294 361.405 15.937 361.483 16.2349C361.561 16.5327 361.68 16.8013 361.842 17.0405C362.003 17.2798 362.203 17.4702 362.442 17.6118C362.686 17.7485 362.972 17.8169 363.299 17.8169C363.602 17.8169 363.885 17.7583 364.149 17.6411C364.417 17.519 364.654 17.3555 364.859 17.1504C365.069 16.9404 365.235 16.7036 365.357 16.4399C365.484 16.1763 365.557 15.9004 365.577 15.6123H366.221C366.221 16.0176 366.141 16.418 365.98 16.8135C365.824 17.2041 365.604 17.5605 365.321 17.8828C365.037 18.2051 364.705 18.4639 364.325 18.6592C363.944 18.8496 363.529 18.9448 363.079 18.9448C362.552 18.9448 362.096 18.8423 361.71 18.6372C361.324 18.4321 361.007 18.1587 360.758 17.8169C360.513 17.4751 360.33 17.0942 360.208 16.6743C360.091 16.2495 360.033 15.8198 360.033 15.3853C360.033 14.8774 360.103 14.4014 360.245 13.957C360.387 13.5127 360.596 13.1221 360.875 12.7852C361.153 12.4434 361.497 12.1772 361.908 11.9868C362.323 11.7964 362.801 11.7012 363.343 11.7012C363.953 11.7012 364.473 11.8232 364.903 12.0674C365.333 12.3115 365.682 12.6387 365.951 13.0488C366.224 13.459 366.424 13.9204 366.551 14.4331C366.678 14.9458 366.742 15.4731 366.742 16.0151V16.5059C366.742 17.0576 366.705 17.6191 366.632 18.1904C366.563 18.7568 366.429 19.2988 366.229 19.8164C366.034 20.334 365.748 20.7979 365.372 21.208C364.996 21.6133 364.505 21.9355 363.9 22.1748C363.299 22.4092 362.557 22.5264 361.673 22.5264H361.534V21.3765Z" fill="black" fill-opacity="0.3"/>
<path d="M500.019 16.3301V17.9561C500.019 18.8301 499.941 19.5674 499.784 20.168C499.628 20.7686 499.403 21.252 499.111 21.6182C498.818 21.9844 498.464 22.2505 498.049 22.4165C497.638 22.5776 497.174 22.6582 496.657 22.6582C496.247 22.6582 495.868 22.6069 495.522 22.5044C495.175 22.4019 494.862 22.2383 494.584 22.0137C494.311 21.7842 494.076 21.4863 493.881 21.1201C493.686 20.7539 493.537 20.3096 493.434 19.7871C493.332 19.2646 493.28 18.6543 493.28 17.9561V16.3301C493.28 15.4561 493.359 14.7236 493.515 14.1328C493.676 13.542 493.903 13.0684 494.196 12.7119C494.489 12.3506 494.84 12.0918 495.251 11.9355C495.666 11.7793 496.13 11.7012 496.642 11.7012C497.057 11.7012 497.438 11.7524 497.785 11.855C498.136 11.9526 498.449 12.1113 498.722 12.3311C498.996 12.5459 499.228 12.834 499.418 13.1953C499.613 13.5518 499.762 13.9888 499.865 14.5063C499.967 15.0239 500.019 15.6318 500.019 16.3301ZM498.656 18.1758V16.103C498.656 15.6245 498.627 15.2046 498.569 14.8433C498.515 14.4771 498.434 14.1646 498.327 13.9058C498.219 13.647 498.083 13.437 497.917 13.2759C497.756 13.1147 497.568 12.9976 497.353 12.9243C497.143 12.8462 496.906 12.8071 496.642 12.8071C496.32 12.8071 496.034 12.8682 495.785 12.9902C495.536 13.1074 495.326 13.2954 495.155 13.5542C494.989 13.813 494.862 14.1523 494.775 14.5723C494.687 14.9922 494.643 15.5024 494.643 16.103V18.1758C494.643 18.6543 494.67 19.0767 494.723 19.4429C494.782 19.8091 494.867 20.1265 494.98 20.395C495.092 20.6587 495.229 20.876 495.39 21.0469C495.551 21.2178 495.736 21.3447 495.946 21.4277C496.161 21.5059 496.398 21.5449 496.657 21.5449C496.989 21.5449 497.279 21.4814 497.528 21.3545C497.778 21.2275 497.985 21.0298 498.151 20.7612C498.322 20.4878 498.449 20.1387 498.532 19.7139C498.615 19.2842 498.656 18.7715 498.656 18.1758ZM503.739 16.5132H504.706C505.18 16.5132 505.57 16.4351 505.878 16.2788C506.191 16.1177 506.423 15.9004 506.574 15.627C506.73 15.3486 506.808 15.0361 506.808 14.6895C506.808 14.2793 506.74 13.9351 506.603 13.6567C506.466 13.3784 506.261 13.1685 505.988 13.0269C505.715 12.8853 505.368 12.8145 504.948 12.8145C504.567 12.8145 504.23 12.8901 503.937 13.0415C503.649 13.188 503.422 13.3979 503.256 13.6714C503.095 13.9448 503.014 14.2671 503.014 14.6382H501.659C501.659 14.0962 501.796 13.603 502.07 13.1587C502.343 12.7144 502.726 12.3604 503.219 12.0967C503.717 11.833 504.294 11.7012 504.948 11.7012C505.592 11.7012 506.156 11.8159 506.64 12.0454C507.123 12.27 507.499 12.6069 507.768 13.0562C508.036 13.5005 508.171 14.0547 508.171 14.7188C508.171 14.9873 508.107 15.2754 507.98 15.583C507.858 15.8857 507.665 16.1689 507.402 16.4326C507.143 16.6963 506.806 16.9136 506.391 17.0845C505.976 17.2505 505.478 17.3335 504.897 17.3335H503.739V16.5132ZM503.739 17.6265V16.8135H504.897C505.575 16.8135 506.137 16.894 506.581 17.0552C507.026 17.2163 507.375 17.4312 507.629 17.6997C507.887 17.9683 508.068 18.2637 508.171 18.5859C508.278 18.9033 508.332 19.2207 508.332 19.5381C508.332 20.0361 508.246 20.478 508.075 20.8638C507.909 21.2495 507.673 21.5767 507.365 21.8452C507.062 22.1138 506.706 22.3164 506.296 22.4531C505.885 22.5898 505.439 22.6582 504.955 22.6582C504.491 22.6582 504.054 22.5923 503.644 22.4604C503.239 22.3286 502.88 22.1382 502.568 21.8892C502.255 21.6353 502.011 21.3252 501.835 20.959C501.659 20.5879 501.571 20.1655 501.571 19.6919H502.926C502.926 20.063 503.007 20.3877 503.168 20.666C503.334 20.9443 503.569 21.1616 503.871 21.3179C504.179 21.4692 504.54 21.5449 504.955 21.5449C505.37 21.5449 505.727 21.4741 506.025 21.3325C506.327 21.186 506.559 20.9663 506.72 20.6733C506.886 20.3804 506.969 20.0117 506.969 19.5674C506.969 19.123 506.877 18.7593 506.691 18.4761C506.506 18.188 506.242 17.9756 505.9 17.8389C505.563 17.6973 505.165 17.6265 504.706 17.6265H503.739ZM515.063 11.8477L510.617 23.4272H509.452L513.905 11.8477H515.063ZM523.09 16.3301V17.9561C523.09 18.8301 523.012 19.5674 522.856 20.168C522.699 20.7686 522.475 21.252 522.182 21.6182C521.889 21.9844 521.535 22.2505 521.12 22.4165C520.71 22.5776 520.246 22.6582 519.728 22.6582C519.318 22.6582 518.94 22.6069 518.593 22.5044C518.246 22.4019 517.934 22.2383 517.655 22.0137C517.382 21.7842 517.148 21.4863 516.952 21.1201C516.757 20.7539 516.608 20.3096 516.506 19.7871C516.403 19.2646 516.352 18.6543 516.352 17.9561V16.3301C516.352 15.4561 516.43 14.7236 516.586 14.1328C516.747 13.542 516.974 13.0684 517.267 12.7119C517.56 12.3506 517.912 12.0918 518.322 11.9355C518.737 11.7793 519.201 11.7012 519.714 11.7012C520.129 11.7012 520.509 11.7524 520.856 11.855C521.208 11.9526 521.52 12.1113 521.794 12.3311C522.067 12.5459 522.299 12.834 522.489 13.1953C522.685 13.5518 522.834 13.9888 522.936 14.5063C523.039 15.0239 523.09 15.6318 523.09 16.3301ZM521.728 18.1758V16.103C521.728 15.6245 521.698 15.2046 521.64 14.8433C521.586 14.4771 521.506 14.1646 521.398 13.9058C521.291 13.647 521.154 13.437 520.988 13.2759C520.827 13.1147 520.639 12.9976 520.424 12.9243C520.214 12.8462 519.977 12.8071 519.714 12.8071C519.391 12.8071 519.106 12.8682 518.857 12.9902C518.608 13.1074 518.398 13.2954 518.227 13.5542C518.061 13.813 517.934 14.1523 517.846 14.5723C517.758 14.9922 517.714 15.5024 517.714 16.103V18.1758C517.714 18.6543 517.741 19.0767 517.795 19.4429C517.853 19.8091 517.939 20.1265 518.051 20.395C518.163 20.6587 518.3 20.876 518.461 21.0469C518.622 21.2178 518.808 21.3447 519.018 21.4277C519.233 21.5059 519.469 21.5449 519.728 21.5449C520.06 21.5449 520.351 21.4814 520.6 21.3545C520.849 21.2275 521.056 21.0298 521.222 20.7612C521.393 20.4878 521.52 20.1387 521.603 19.7139C521.686 19.2842 521.728 18.7715 521.728 18.1758ZM526.181 21.3765H526.32C527.101 21.3765 527.736 21.2666 528.224 21.0469C528.713 20.8271 529.089 20.5317 529.352 20.1606C529.616 19.7896 529.797 19.3721 529.894 18.9082C529.992 18.4395 530.041 17.9585 530.041 17.4653V15.832C530.041 15.3486 529.985 14.9189 529.872 14.543C529.765 14.167 529.613 13.8521 529.418 13.5981C529.228 13.3442 529.01 13.1514 528.766 13.0195C528.522 12.8877 528.263 12.8218 527.99 12.8218C527.677 12.8218 527.397 12.8853 527.148 13.0122C526.903 13.1343 526.696 13.3076 526.525 13.5322C526.359 13.7568 526.232 14.0205 526.144 14.3232C526.056 14.626 526.012 14.9556 526.012 15.312C526.012 15.6294 526.051 15.937 526.13 16.2349C526.208 16.5327 526.327 16.8013 526.488 17.0405C526.65 17.2798 526.85 17.4702 527.089 17.6118C527.333 17.7485 527.619 17.8169 527.946 17.8169C528.249 17.8169 528.532 17.7583 528.796 17.6411C529.064 17.519 529.301 17.3555 529.506 17.1504C529.716 16.9404 529.882 16.7036 530.004 16.4399C530.131 16.1763 530.204 15.9004 530.224 15.6123H530.868C530.868 16.0176 530.788 16.418 530.627 16.8135C530.47 17.2041 530.251 17.5605 529.967 17.8828C529.684 18.2051 529.352 18.4639 528.971 18.6592C528.59 18.8496 528.175 18.9448 527.726 18.9448C527.199 18.9448 526.742 18.8423 526.357 18.6372C525.971 18.4321 525.653 18.1587 525.404 17.8169C525.16 17.4751 524.977 17.0942 524.855 16.6743C524.738 16.2495 524.679 15.8198 524.679 15.3853C524.679 14.8774 524.75 14.4014 524.892 13.957C525.033 13.5127 525.243 13.1221 525.522 12.7852C525.8 12.4434 526.144 12.1772 526.554 11.9868C526.969 11.7964 527.448 11.7012 527.99 11.7012C528.6 11.7012 529.12 11.8232 529.55 12.0674C529.98 12.3115 530.329 12.6387 530.597 13.0488C530.871 13.459 531.071 13.9204 531.198 14.4331C531.325 14.9458 531.388 15.4731 531.388 16.0151V16.5059C531.388 17.0576 531.352 17.6191 531.278 18.1904C531.21 18.7568 531.076 19.2988 530.876 19.8164C530.68 20.334 530.395 20.7979 530.019 21.208C529.643 21.6133 529.152 21.9355 528.547 22.1748C527.946 22.4092 527.204 22.5264 526.32 22.5264H526.181V21.3765Z" fill="black" fill-opacity="0.3"/>
<path d="M661.328 16.3301V17.9561C661.328 18.8301 661.25 19.5674 661.094 20.168C660.937 20.7686 660.713 21.252 660.42 21.6182C660.127 21.9844 659.773 22.2505 659.358 22.4165C658.948 22.5776 658.484 22.6582 657.966 22.6582C657.556 22.6582 657.178 22.6069 656.831 22.5044C656.484 22.4019 656.172 22.2383 655.894 22.0137C655.62 21.7842 655.386 21.4863 655.19 21.1201C654.995 20.7539 654.846 20.3096 654.744 19.7871C654.641 19.2646 654.59 18.6543 654.59 17.9561V16.3301C654.59 15.4561 654.668 14.7236 654.824 14.1328C654.985 13.542 655.212 13.0684 655.505 12.7119C655.798 12.3506 656.15 12.0918 656.56 11.9355C656.975 11.7793 657.439 11.7012 657.952 11.7012C658.367 11.7012 658.748 11.7524 659.094 11.855C659.446 11.9526 659.758 12.1113 660.032 12.3311C660.305 12.5459 660.537 12.834 660.728 13.1953C660.923 13.5518 661.072 13.9888 661.174 14.5063C661.277 15.0239 661.328 15.6318 661.328 16.3301ZM659.966 18.1758V16.103C659.966 15.6245 659.937 15.2046 659.878 14.8433C659.824 14.4771 659.744 14.1646 659.636 13.9058C659.529 13.647 659.392 13.437 659.226 13.2759C659.065 13.1147 658.877 12.9976 658.662 12.9243C658.452 12.8462 658.215 12.8071 657.952 12.8071C657.629 12.8071 657.344 12.8682 657.095 12.9902C656.846 13.1074 656.636 13.2954 656.465 13.5542C656.299 13.813 656.172 14.1523 656.084 14.5723C655.996 14.9922 655.952 15.5024 655.952 16.103V18.1758C655.952 18.6543 655.979 19.0767 656.033 19.4429C656.091 19.8091 656.177 20.1265 656.289 20.395C656.401 20.6587 656.538 20.876 656.699 21.0469C656.86 21.2178 657.046 21.3447 657.256 21.4277C657.471 21.5059 657.708 21.5449 657.966 21.5449C658.298 21.5449 658.589 21.4814 658.838 21.3545C659.087 21.2275 659.294 21.0298 659.46 20.7612C659.631 20.4878 659.758 20.1387 659.841 19.7139C659.924 19.2842 659.966 18.7715 659.966 18.1758ZM670.278 18.9229V20.0361H662.573V19.2378L667.349 11.8477H668.455L667.268 13.9863L664.111 18.9229H670.278ZM668.791 11.8477V22.5117H667.437V11.8477H668.791ZM676.372 11.8477L671.926 23.4272H670.762L675.215 11.8477H676.372ZM684.399 16.3301V17.9561C684.399 18.8301 684.321 19.5674 684.165 20.168C684.009 20.7686 683.784 21.252 683.491 21.6182C683.198 21.9844 682.844 22.2505 682.429 22.4165C682.019 22.5776 681.555 22.6582 681.038 22.6582C680.627 22.6582 680.249 22.6069 679.902 22.5044C679.556 22.4019 679.243 22.2383 678.965 22.0137C678.691 21.7842 678.457 21.4863 678.262 21.1201C678.066 20.7539 677.917 20.3096 677.815 19.7871C677.712 19.2646 677.661 18.6543 677.661 17.9561V16.3301C677.661 15.4561 677.739 14.7236 677.896 14.1328C678.057 13.542 678.284 13.0684 678.577 12.7119C678.87 12.3506 679.221 12.0918 679.631 11.9355C680.046 11.7793 680.51 11.7012 681.023 11.7012C681.438 11.7012 681.819 11.7524 682.166 11.855C682.517 11.9526 682.83 12.1113 683.103 12.3311C683.376 12.5459 683.608 12.834 683.799 13.1953C683.994 13.5518 684.143 13.9888 684.246 14.5063C684.348 15.0239 684.399 15.6318 684.399 16.3301ZM683.037 18.1758V16.103C683.037 15.6245 683.008 15.2046 682.949 14.8433C682.896 14.4771 682.815 14.1646 682.708 13.9058C682.6 13.647 682.463 13.437 682.297 13.2759C682.136 13.1147 681.948 12.9976 681.733 12.9243C681.523 12.8462 681.287 12.8071 681.023 12.8071C680.701 12.8071 680.415 12.8682 680.166 12.9902C679.917 13.1074 679.707 13.2954 679.536 13.5542C679.37 13.813 679.243 14.1523 679.155 14.5723C679.067 14.9922 679.023 15.5024 679.023 16.103V18.1758C679.023 18.6543 679.05 19.0767 679.104 19.4429C679.163 19.8091 679.248 20.1265 679.36 20.395C679.473 20.6587 679.609 20.876 679.771 21.0469C679.932 21.2178 680.117 21.3447 680.327 21.4277C680.542 21.5059 680.779 21.5449 681.038 21.5449C681.37 21.5449 681.66 21.4814 681.909 21.3545C682.158 21.2275 682.366 21.0298 682.532 20.7612C682.703 20.4878 682.83 20.1387 682.913 19.7139C682.996 19.2842 683.037 18.7715 683.037 18.1758ZM687.49 21.3765H687.629C688.411 21.3765 689.045 21.2666 689.534 21.0469C690.022 20.8271 690.398 20.5317 690.662 20.1606C690.925 19.7896 691.106 19.3721 691.204 18.9082C691.301 18.4395 691.35 17.9585 691.35 17.4653V15.832C691.35 15.3486 691.294 14.9189 691.182 14.543C691.074 14.167 690.923 13.8521 690.728 13.5981C690.537 13.3442 690.32 13.1514 690.076 13.0195C689.832 12.8877 689.573 12.8218 689.299 12.8218C688.987 12.8218 688.706 12.8853 688.457 13.0122C688.213 13.1343 688.005 13.3076 687.834 13.5322C687.668 13.7568 687.541 14.0205 687.454 14.3232C687.366 14.626 687.322 14.9556 687.322 15.312C687.322 15.6294 687.361 15.937 687.439 16.2349C687.517 16.5327 687.637 16.8013 687.798 17.0405C687.959 17.2798 688.159 17.4702 688.398 17.6118C688.643 17.7485 688.928 17.8169 689.255 17.8169C689.558 17.8169 689.841 17.7583 690.105 17.6411C690.374 17.519 690.61 17.3555 690.815 17.1504C691.025 16.9404 691.191 16.7036 691.313 16.4399C691.44 16.1763 691.514 15.9004 691.533 15.6123H692.178C692.178 16.0176 692.097 16.418 691.936 16.8135C691.78 17.2041 691.56 17.5605 691.277 17.8828C690.994 18.2051 690.662 18.4639 690.281 18.6592C689.9 18.8496 689.485 18.9448 689.036 18.9448C688.508 18.9448 688.052 18.8423 687.666 18.6372C687.28 18.4321 686.963 18.1587 686.714 17.8169C686.47 17.4751 686.287 17.0942 686.165 16.6743C686.047 16.2495 685.989 15.8198 685.989 15.3853C685.989 14.8774 686.06 14.4014 686.201 13.957C686.343 13.5127 686.553 13.1221 686.831 12.7852C687.109 12.4434 687.454 12.1772 687.864 11.9868C688.279 11.7964 688.757 11.7012 689.299 11.7012C689.91 11.7012 690.43 11.8232 690.859 12.0674C691.289 12.3115 691.638 12.6387 691.907 13.0488C692.18 13.459 692.38 13.9204 692.507 14.4331C692.634 14.9458 692.698 15.4731 692.698 16.0151V16.5059C692.698 17.0576 692.661 17.6191 692.588 18.1904C692.52 18.7568 692.385 19.2988 692.185 19.8164C691.99 20.334 691.704 20.7979 691.328 21.208C690.952 21.6133 690.461 21.9355 689.856 22.1748C689.255 22.4092 688.513 22.5264 687.629 22.5264H687.49V21.3765Z" fill="black" fill-opacity="0.3"/>
<path d="M795.948 16.4326V17.5825H790.177V16.4326H795.948ZM790.396 11.8477V22.5117H788.983V11.8477H790.396ZM797.179 11.8477V22.5117H795.772V11.8477H797.179ZM807.901 16.8428V17.5166C807.901 18.3174 807.801 19.0352 807.601 19.6699C807.401 20.3047 807.113 20.8442 806.737 21.2886C806.361 21.7329 805.909 22.0723 805.382 22.3066C804.859 22.541 804.273 22.6582 803.624 22.6582C802.994 22.6582 802.416 22.541 801.888 22.3066C801.366 22.0723 800.912 21.7329 800.526 21.2886C800.145 20.8442 799.85 20.3047 799.64 19.6699C799.43 19.0352 799.325 18.3174 799.325 17.5166V16.8428C799.325 16.042 799.427 15.3267 799.632 14.6968C799.842 14.062 800.138 13.5225 800.519 13.0781C800.899 12.6289 801.351 12.2871 801.874 12.0527C802.401 11.8184 802.979 11.7012 803.609 11.7012C804.259 11.7012 804.845 11.8184 805.367 12.0527C805.895 12.2871 806.346 12.6289 806.722 13.0781C807.103 13.5225 807.394 14.062 807.594 14.6968C807.799 15.3267 807.901 16.042 807.901 16.8428ZM806.502 17.5166V16.8281C806.502 16.1934 806.437 15.6318 806.305 15.1436C806.178 14.6553 805.99 14.2451 805.741 13.9131C805.492 13.5811 805.187 13.3296 804.825 13.1587C804.469 12.9878 804.063 12.9023 803.609 12.9023C803.17 12.9023 802.772 12.9878 802.416 13.1587C802.064 13.3296 801.761 13.5811 801.507 13.9131C801.258 14.2451 801.065 14.6553 800.929 15.1436C800.792 15.6318 800.724 16.1934 800.724 16.8281V17.5166C800.724 18.1562 800.792 18.7227 800.929 19.2158C801.065 19.7041 801.261 20.1167 801.515 20.4536C801.773 20.7856 802.079 21.0371 802.43 21.208C802.787 21.3789 803.185 21.4644 803.624 21.4644C804.083 21.4644 804.491 21.3789 804.847 21.208C805.204 21.0371 805.504 20.7856 805.748 20.4536C805.997 20.1167 806.185 19.7041 806.312 19.2158C806.439 18.7227 806.502 18.1562 806.502 17.5166ZM814.493 19.3989V11.8477H815.899V19.3989C815.899 20.1021 815.755 20.6953 815.467 21.1787C815.179 21.6621 814.781 22.0308 814.273 22.2847C813.77 22.5337 813.192 22.6582 812.538 22.6582C811.883 22.6582 811.302 22.5459 810.794 22.3213C810.287 22.0967 809.889 21.7549 809.601 21.2959C809.312 20.8369 809.168 20.2583 809.168 19.5601H810.582C810.582 20.0093 810.665 20.3779 810.831 20.666C810.997 20.9541 811.227 21.1665 811.52 21.3032C811.817 21.4399 812.157 21.5083 812.538 21.5083C812.909 21.5083 813.241 21.4302 813.534 21.2739C813.832 21.1128 814.066 20.876 814.237 20.5635C814.408 20.2461 814.493 19.8579 814.493 19.3989ZM825.069 21.3618V22.5117H819.422V21.3618H825.069ZM819.708 11.8477V22.5117H818.294V11.8477H819.708ZM824.322 16.4326V17.5825H819.422V16.4326H824.322ZM824.996 11.8477V13.0049H819.422V11.8477H824.996Z" fill="black" fill-opacity="0.3"/>
<path d="M0.145709 242.154C-0.744829 263.172 19.4407 267.145 29.6448 266.504L811.648 265.863C848.16 272.015 850.238 238.523 846.713 221.009L848.939 18.5244C845.043 96.0581 784.375 31.3399 745.414 54.4078C706.453 77.4756 727.047 140.912 666.936 176.796C606.824 212.679 613.503 -12.8735 538.364 106.951C463.225 226.776 385.86 71.0679 369.719 83.8834C353.578 96.6988 364.153 221.009 230.016 106.951C95.8785 -7.10654 1.25888 215.883 0.145709 242.154Z" fill="url(#paint0_linear_1_4253)"/>
<path d="M197.023 119.204C54.6252 85.8297 6.04686 187.251 0.669873 242.133C-3.22379 257.708 19.0258 268.276 23.4757 267.164L826.686 266.608C846.266 261.713 848.194 247.881 846.711 241.577L845.598 55.7928C834.103 90.465 796.983 148.796 740.469 104.742C669.826 49.6741 713.769 109.192 543.56 176.497C373.35 243.802 480.149 83.6048 391.706 55.7928C303.264 27.9808 375.019 160.922 197.023 119.204Z" fill="url(#paint1_linear_1_4253)"/>
<defs>
<linearGradient id="paint0_linear_1_4253" x1="424.528" y1="18.5244" x2="424.528" y2="266.607" gradientUnits="userSpaceOnUse">
<stop stop-color="#284277"/>
<stop offset="1" stop-color="#290081" stop-opacity="0"/>
</linearGradient>
<linearGradient id="paint1_linear_1_4253" x1="423.659" y1="51.9307" x2="423.659" y2="267.244" gradientUnits="userSpaceOnUse">
<stop stop-color="#487AF9"/>
<stop offset="1" stop-color="#0185FE" stop-opacity="0"/>
</linearGradient>
</defs>
</svg>
