<svg width="68" height="76" viewBox="0 0 68 76" fill="none" xmlns="http://www.w3.org/2000/svg">
<rect x="0.335938" y="0.311523" width="67.5904" height="74.9361" rx="33.7952" fill="#F0FDFA"/>
<path d="M25.4038 50.2887C23.3917 50.2887 21.6768 49.5794 20.2591 48.1607C18.8414 46.742 18.1321 45.0271 18.1311 43.016C18.1301 41.0048 18.8395 39.2899 20.2591 37.8712C21.6787 36.4526 23.3937 35.7432 25.4038 35.7432C27.414 35.7432 29.1294 36.4526 30.55 37.8712C31.9706 39.2899 32.6795 41.0048 32.6766 43.016C32.6737 45.0271 31.9643 46.7425 30.5486 48.1621C29.1328 49.5818 27.4179 50.2906 25.4038 50.2887ZM25.4038 45.1978C24.7978 45.1978 24.2829 44.9859 23.8591 44.5621C23.4353 44.1384 23.223 43.623 23.222 43.016C23.221 42.4089 23.4334 41.894 23.8591 41.4712C24.2848 41.0484 24.7997 40.8361 25.4038 40.8341C26.008 40.8322 26.5233 41.0446 26.95 41.4712C27.3767 41.8979 27.5886 42.4128 27.5856 43.016C27.5827 43.6191 27.3709 44.1345 26.95 44.5621C26.5292 44.9898 26.0138 45.2017 25.4038 45.1978ZM45.0402 50.2887C43.6341 50.2887 42.4341 49.7917 41.4402 48.7978C40.4463 47.8038 39.9493 46.6038 39.9493 45.1978C39.9493 43.7917 40.4463 42.5917 41.4402 41.5978C42.4341 40.6038 43.6341 40.1069 45.0402 40.1069C46.4463 40.1069 47.6463 40.6038 48.6402 41.5978C49.6341 42.5917 50.1311 43.7917 50.1311 45.1978C50.1311 46.6038 49.6341 47.8038 48.6402 48.7978C47.6463 49.7917 46.4463 50.2887 45.0402 50.2887ZM22.4947 34.2887C22.0826 34.2887 21.7374 34.1491 21.4591 33.8698C21.1808 33.5905 21.0412 33.2453 21.0402 32.8341C21.0392 32.423 21.1789 32.0778 21.4591 31.7985C21.7393 31.5192 22.0846 31.3796 22.4947 31.3796H26.8584C27.6584 31.3796 28.3435 31.6647 28.9137 32.2349C29.4838 32.8051 29.7684 33.4897 29.7675 34.2887H22.4947ZM25.4038 47.3796C26.616 47.3796 27.6463 46.9554 28.4947 46.1069C29.3432 45.2584 29.7675 44.2281 29.7675 43.016C29.7675 41.8038 29.3432 40.7735 28.4947 39.9251C27.6463 39.0766 26.616 38.6523 25.4038 38.6523C24.1917 38.6523 23.1614 39.0766 22.3129 39.9251C21.4644 40.7735 21.0402 41.8038 21.0402 43.016C21.0402 44.2281 21.4644 45.2584 22.3129 46.1069C23.1614 46.9554 24.1917 47.3796 25.4038 47.3796ZM45.0402 47.3796C45.6463 47.3796 46.1616 47.1677 46.5864 46.744C47.0111 46.3202 47.223 45.8048 47.222 45.1978C47.221 44.5907 47.0092 44.0758 46.5864 43.6531C46.1636 43.2303 45.6482 43.0179 45.0402 43.016C44.4322 43.014 43.9173 43.2264 43.4955 43.6531C43.0736 44.0797 42.8613 44.5946 42.8584 45.1978C42.8555 45.8009 43.0678 46.3163 43.4955 46.744C43.9231 47.1716 44.438 47.3835 45.0402 47.3796ZM33.9857 44.4705H38.5675C38.8099 42.7251 39.5672 41.3311 40.8395 40.2887C42.1117 39.2463 43.5483 38.7251 45.1493 38.7251C45.7553 38.7251 46.3556 38.8099 46.95 38.9796C47.5444 39.1493 48.12 39.4038 48.6766 39.7432V32.8341C48.6766 32.0341 48.392 31.3495 47.8227 30.7803C47.2535 30.2111 46.5684 29.926 45.7675 29.9251H36.6038L35.0766 28.3251L37.1129 26.2887L36.0947 25.2705L30.9311 30.4341L32.022 31.4523L34.0584 29.416L35.5857 30.9432V34.2887C35.5857 35.0887 35.301 35.7738 34.7318 36.344C34.1626 36.9141 33.4775 37.1988 32.6766 37.1978H31.8766C32.6038 37.9978 33.1556 38.8948 33.5318 39.8887C33.9081 40.8826 34.0957 41.9251 34.0947 43.016C34.0947 43.2584 34.0884 43.5008 34.0758 43.7432C34.0632 43.9857 34.0332 44.2281 33.9857 44.4705Z" fill="#487AF9"/>
</svg>
