<svg width="68" height="76" viewBox="0 0 68 76" fill="none" xmlns="http://www.w3.org/2000/svg">
<rect x="0.148438" y="0.311523" width="67.5904" height="74.9361" rx="33.7952" fill="#F0FDFA"/>
<path d="M45.3507 50.0033C44.7264 44.5112 42.22 42.2348 40.3893 40.5748C39.1236 39.4226 38.515 38.8234 38.515 37.7798C38.515 36.7505 39.1214 36.1626 40.3836 35.0341C42.2357 33.3791 44.7721 31.1119 45.3521 25.5455C45.3985 25.0779 45.3462 24.6057 45.1985 24.1595C45.0509 23.7134 44.8112 23.3032 44.495 22.9555C44.1573 22.5842 43.7456 22.2877 43.2863 22.0852C42.8271 21.8827 42.3305 21.7787 41.8286 21.7798H26.0586C25.556 21.7782 25.0586 21.8821 24.5986 22.0846C24.1386 22.2871 23.7261 22.5838 23.3879 22.9555C23.0726 23.3037 22.8338 23.714 22.687 24.1601C22.5401 24.6062 22.4883 25.0782 22.535 25.5455C23.1129 31.0941 25.64 33.3448 27.485 34.9876C28.7593 36.1226 29.3721 36.7148 29.3721 37.7798C29.3721 38.8584 28.7579 39.4626 27.4793 40.6191C25.6579 42.2691 23.1579 44.5284 22.5364 50.0033C22.486 50.4689 22.5344 50.9398 22.6784 51.3854C22.8224 51.8309 23.0588 52.2411 23.3721 52.5891C23.7111 52.9652 24.1256 53.2656 24.5885 53.4707C25.0513 53.6759 25.5523 53.7812 26.0586 53.7798H41.8286C42.3349 53.7812 42.8358 53.6759 43.2987 53.4707C43.7616 53.2656 44.176 52.9652 44.515 52.5891C44.8283 52.2411 45.0647 51.8309 45.2087 51.3854C45.3527 50.9398 45.4011 50.4689 45.3507 50.0033ZM40.1793 50.3512H27.7386C26.6243 50.3512 26.31 49.0655 27.0914 48.2683C28.9829 46.3512 32.8007 44.9784 32.8007 42.7798V35.4941C32.8007 34.0762 30.0864 32.9941 28.4071 30.6941C28.13 30.3148 28.1579 29.7798 28.8621 29.7798H39.0571C39.6578 29.7798 39.7871 30.3105 39.5143 30.6905C37.8593 32.9941 35.0864 34.0691 35.0864 35.4941V42.7798C35.0864 44.9605 39.0657 46.1369 40.8293 48.2705C41.54 49.1305 41.2914 50.3512 40.1793 50.3512Z" fill="#487AF9"/>
</svg>
