<svg width="79" height="79" viewBox="0 0 79 79" fill="none" xmlns="http://www.w3.org/2000/svg">
<path d="M39.7249 78.0571C61.1569 78.0571 78.4849 60.7291 78.4849 39.2971C78.4849 17.8651 61.1569 0.537109 39.7249 0.537109C18.2929 0.537109 0.964859 17.8651 0.964859 39.2971C0.964859 60.7291 18.2929 78.0571 39.7249 78.0571ZM39.7249 5.09711C58.6489 5.09711 73.9249 20.3731 73.9249 39.2971C73.9249 58.2211 58.6489 73.4971 39.7249 73.4971C20.8009 73.4971 5.52486 58.2211 5.52486 39.2971C5.52486 20.3731 20.8009 5.09711 39.7249 5.09711Z" fill="#B6CEFF"/>
<path d="M39.0407 61.4132L61.1567 39.2972L39.0407 17.1812L35.8487 20.3732L54.7727 39.2972L35.8487 58.2212L39.0407 61.4132Z" fill="#B6CEFF"/>
<path d="M57.9653 37.0171H19.2053V41.5771H57.9653V37.0171Z" fill="#B6CEFF"/>
</svg>
