<svg width="78" height="78" viewBox="0 0 78 78" fill="none" xmlns="http://www.w3.org/2000/svg">
<g id="arrow">
<path id="Vector" d="M38.76 77.8276C17.328 77.8276 0 60.4996 0 39.0676C0 17.6356 17.328 0.307617 38.76 0.307617C60.192 0.307617 77.52 17.6356 77.52 39.0676C77.52 60.4996 60.192 77.8276 38.76 77.8276ZM38.76 4.86762C19.836 4.86762 4.56 20.1436 4.56 39.0676C4.56 57.9916 19.836 73.2676 38.76 73.2676C57.684 73.2676 72.96 57.9916 72.96 39.0676C72.96 20.1436 57.684 4.86762 38.76 4.86762Z" fill="#B6CEFF"/>
<path id="Vector_2" d="M39.4441 61.1832L17.3281 39.0672L39.4441 16.9512L42.6361 20.1432L23.7121 39.0672L42.6361 57.9912L39.4441 61.1832Z" fill="#B6CEFF"/>
<path id="Vector_3" d="M20.5195 36.7871H59.2795V41.3471H20.5195V36.7871Z" fill="#B6CEFF"/>
</g>
</svg>
