<svg width="69" height="76" viewBox="0 0 69 76" fill="none" xmlns="http://www.w3.org/2000/svg">
<rect x="0.554688" y="0.824219" width="67.5904" height="74.9361" rx="33.7952" fill="#F0FDFA"/>
<path d="M44.1279 38.2925C43.4206 38.2925 42.7424 38.0115 42.2423 37.5114C41.7422 37.0113 41.4612 36.3331 41.4612 35.6258C41.4612 34.9186 41.7422 34.2403 42.2423 33.7402C42.7424 33.2401 43.4206 32.9591 44.1279 32.9591C44.8351 32.9591 45.5134 33.2401 46.0135 33.7402C46.5136 34.2403 46.7945 34.9186 46.7945 35.6258C46.7945 36.3331 46.5136 37.0113 46.0135 37.5114C45.5134 38.0115 44.8351 38.2925 44.1279 38.2925ZM38.7945 31.1814C38.0873 31.1814 37.409 30.9004 36.9089 30.4003C36.4088 29.9002 36.1279 29.2219 36.1279 28.5147C36.1279 27.8075 36.4088 27.1292 36.9089 26.6291C37.409 26.129 38.0873 25.848 38.7945 25.848C39.5018 25.848 40.1801 26.129 40.6802 26.6291C41.1803 27.1292 41.4612 27.8075 41.4612 28.5147C41.4612 29.2219 41.1803 29.9002 40.6802 30.4003C40.1801 30.9004 39.5018 31.1814 38.7945 31.1814ZM29.9057 31.1814C29.1984 31.1814 28.5201 30.9004 28.02 30.4003C27.5199 29.9002 27.239 29.2219 27.239 28.5147C27.239 27.8075 27.5199 27.1292 28.02 26.6291C28.5201 26.129 29.1984 25.848 29.9057 25.848C30.6129 25.848 31.2912 26.129 31.7913 26.6291C32.2914 27.1292 32.5723 27.8075 32.5723 28.5147C32.5723 29.2219 32.2914 29.9002 31.7913 30.4003C31.2912 30.9004 30.6129 31.1814 29.9057 31.1814ZM24.5723 38.2925C23.8651 38.2925 23.1868 38.0115 22.6867 37.5114C22.1866 37.0113 21.9057 36.3331 21.9057 35.6258C21.9057 34.9186 22.1866 34.2403 22.6867 33.7402C23.1868 33.2401 23.8651 32.9591 24.5723 32.9591C25.2796 32.9591 25.9578 33.2401 26.4579 33.7402C26.958 34.2403 27.239 34.9186 27.239 35.6258C27.239 36.3331 26.958 37.0113 26.4579 37.5114C25.9578 38.0115 25.2796 38.2925 24.5723 38.2925ZM34.3501 22.2925C30.1066 22.2925 26.037 23.9782 23.0364 26.9788C20.0358 29.9794 18.3501 34.049 18.3501 38.2925C18.3501 42.5359 20.0358 46.6056 23.0364 49.6062C26.037 52.6068 30.1066 54.2925 34.3501 54.2925C35.0573 54.2925 35.7356 54.0115 36.2357 53.5114C36.7358 53.0113 37.0168 52.3331 37.0168 51.6258C37.0168 50.9325 36.7501 50.3103 36.3234 49.848C35.9145 49.368 35.6479 48.7458 35.6479 48.0703C35.6479 47.363 35.9288 46.6847 36.4289 46.1846C36.929 45.6845 37.6073 45.4036 38.3145 45.4036H41.4612C43.8187 45.4036 46.0796 44.4671 47.7466 42.8001C49.4136 41.1331 50.3501 38.8722 50.3501 36.5147C50.3501 28.6569 43.1857 22.2925 34.3501 22.2925Z" fill="#487AF9"/>
</svg>
