<svg width="69" height="76" viewBox="0 0 69 76" fill="none" xmlns="http://www.w3.org/2000/svg">
<rect x="0.960938" y="0.824219" width="67.5904" height="74.9361" rx="33.7952" fill="#F0FDFA"/>
<path d="M34.7562 33.9143H18.46C18.6256 29.1955 21.0837 25.0562 24.7581 22.5853C25.6051 22.0185 26.7195 22.3115 27.299 23.1457L34.7562 33.9143ZM42.9074 31.8765C42.9074 29.6285 44.7351 27.8009 46.9831 27.8009H49.0209C50.148 27.8009 51.0587 28.7115 51.0587 29.8387C51.0587 30.9658 50.148 31.8765 49.0209 31.8765H46.9831V35.9521C46.9831 37.5569 46.6137 39.1489 45.9005 40.6327C45.1872 42.1165 44.1301 43.4666 42.8055 44.6001C41.481 45.7336 39.908 46.6379 38.1759 47.2493C36.4437 47.8606 34.5906 48.179 32.7183 48.179C30.8461 48.179 28.993 47.8606 27.2608 47.2493C25.5287 46.6379 23.9557 45.7336 22.6311 44.6001C21.3066 43.4666 20.2558 42.1165 19.5362 40.6327C18.8166 39.1489 18.4536 37.5569 18.4536 35.9521H42.9074V31.8765ZM23.5482 48.179C24.3589 48.179 25.1363 48.5011 25.7096 49.0743C26.2828 49.6476 26.6049 50.4251 26.6049 51.2358C26.6049 52.0464 26.2828 52.8239 25.7096 53.3972C25.1363 53.9704 24.3589 54.2925 23.5482 54.2925C22.7375 54.2925 21.96 53.9704 21.3867 53.3972C20.8135 52.8239 20.4914 52.0464 20.4914 51.2358C20.4914 50.4251 20.8135 49.6476 21.3867 49.0743C21.96 48.5011 22.7375 48.179 23.5482 48.179ZM38.8318 51.2358C38.8318 50.4251 39.1538 49.6476 39.7271 49.0743C40.3003 48.5011 41.0778 48.179 41.8885 48.179C42.6992 48.179 43.4767 48.5011 44.0499 49.0743C44.6232 49.6476 44.9452 50.4251 44.9452 51.2358C44.9452 52.0464 44.6232 52.8239 44.0499 53.3972C43.4767 53.9704 42.6992 54.2925 41.8885 54.2925C41.0778 54.2925 40.3003 53.9704 39.7271 53.3972C39.1538 52.8239 38.8318 52.0464 38.8318 51.2358Z" fill="#487AF9"/>
</svg>
