<svg width="25" height="25" viewBox="0 0 25 25" fill="none" xmlns="http://www.w3.org/2000/svg">
<g id="Basket">
<g id="Vector">
<path fill-rule="evenodd" clip-rule="evenodd" d="M20.8074 7.50542C20.8074 7.5496 20.8042 7.59373 20.798 7.63746L19.0527 19.8546C18.9119 20.8399 18.0681 21.5718 17.0728 21.5718H8.54196C7.54666 21.5718 6.70282 20.8399 6.56207 19.8546L4.81676 7.63746C4.81051 7.59373 4.80737 7.5496 4.80737 7.50542C4.80737 6.98979 5.22538 6.57178 5.74102 6.57178H19.8737C20.3894 6.57178 20.8074 6.98979 20.8074 7.50542ZM19.7232 8.14446C19.7676 7.84262 19.5336 7.57178 19.2285 7.57178H6.3862C6.08113 7.57178 5.84717 7.84262 5.89151 8.14446L7.59181 19.7171C7.66393 20.208 8.08505 20.5718 8.58119 20.5718H17.0336C17.5297 20.5718 17.9508 20.208 18.0229 19.7171L19.7232 8.14446Z" fill="white" fill-opacity="0.56"/>
<path d="M9.80737 4.57178C9.80737 2.91492 11.1505 1.57178 12.8074 1.57178C14.4642 1.57178 15.8074 2.91492 15.8074 4.57178V9.07178C15.8074 9.34792 15.5835 9.57178 15.3074 9.57178C15.0312 9.57178 14.8074 9.34792 14.8074 9.07178V4.57178C14.8074 3.46721 13.9119 2.57178 12.8074 2.57178C11.7028 2.57178 10.8074 3.46721 10.8074 4.57178V9.07178C10.8074 9.34792 10.5835 9.57178 10.3074 9.57178C10.0312 9.57178 9.80737 9.34792 9.80737 9.07178V4.57178Z" fill="white" fill-opacity="0.56"/>
</g>
</g>
</svg>
