<svg width="68" height="76" viewBox="0 0 68 76" fill="none" xmlns="http://www.w3.org/2000/svg">
<rect x="0.148438" y="0.824219" width="67.5904" height="74.9361" rx="33.7952" fill="#F0FDFA"/>
<path d="M41.5861 54.2925C41.1328 54.2925 40.753 54.1389 40.4469 53.8317C40.1408 53.5245 39.9872 53.1447 39.9861 52.6925C39.985 52.2402 40.1386 51.8605 40.4469 51.5533C40.7552 51.2461 41.1349 51.0925 41.5861 51.0925H46.3861V47.8925H41.5861C41.1328 47.8925 40.753 47.7389 40.4469 47.4317C40.1408 47.1245 39.9872 46.7447 39.9861 46.2925C39.985 45.8402 40.1386 45.4605 40.4469 45.1533C40.7552 44.8461 41.1349 44.6925 41.5861 44.6925H46.3861V41.4925H41.5861C41.1328 41.4925 40.753 41.3389 40.4469 41.0317C40.1408 40.7245 39.9872 40.3447 39.9861 39.8925C39.985 39.4402 40.1386 39.0605 40.4469 38.7533C40.7552 38.4461 41.1349 38.2925 41.5861 38.2925H46.3861V35.0925H41.5861C41.1328 35.0925 40.753 34.9389 40.4469 34.6317C40.1408 34.3245 39.9872 33.9447 39.9861 33.4925C39.985 33.0402 40.1386 32.6605 40.4469 32.3533C40.7552 32.0461 41.1349 31.8925 41.5861 31.8925H46.3861V28.6925H41.5861C41.1328 28.6925 40.753 28.5389 40.4469 28.2317C40.1408 27.9245 39.9872 27.5447 39.9861 27.0925C39.985 26.6402 40.1386 26.2605 40.4469 25.9533C40.7552 25.6461 41.1349 25.4925 41.5861 25.4925H47.9861C48.8661 25.4925 49.6197 25.8061 50.2469 26.4333C50.8741 27.0605 51.1872 27.8135 51.1861 28.6925V51.0925C51.1861 51.9725 50.873 52.7261 50.2469 53.3533C49.6208 53.9805 48.8672 54.2935 47.9861 54.2925H41.5861ZM21.6261 52.1725L16.9061 39.1725C16.6394 38.4525 16.633 37.7325 16.8869 37.0125C17.1408 36.2925 17.6005 35.7325 18.2661 35.3325L23.9861 31.8925V23.8925C23.9861 23.4391 24.1397 23.0594 24.4469 22.7533C24.7541 22.4471 25.1338 22.2935 25.5861 22.2925H28.7861C29.2394 22.2925 29.6197 22.4461 29.9269 22.7533C30.2341 23.0605 30.3872 23.4402 30.3861 23.8925V31.8925L36.1061 35.3325C36.7728 35.7325 37.233 36.2925 37.4869 37.0125C37.7408 37.7325 37.7338 38.4525 37.4661 39.1725L32.7461 52.1725C32.5328 52.8125 32.153 53.3261 31.6069 53.7133C31.0608 54.1005 30.4405 54.2935 29.7461 54.2925H24.6261C23.9328 54.2925 23.313 54.0989 22.7669 53.7117C22.2208 53.3245 21.8405 52.8114 21.6261 52.1725Z" fill="#487AF9"/>
</svg>
