<svg width="25" height="25" viewBox="0 0 25 25" fill="none" xmlns="http://www.w3.org/2000/svg">
<g id="Bell">
<path id="Vector" fill-rule="evenodd" clip-rule="evenodd" d="M6.80743 11.6099V13.6099C6.80743 14.7446 6.48553 15.1831 6.207 15.5625C5.99461 15.8518 5.80743 16.1067 5.80743 16.6099C5.80743 17.7728 6.80743 18.1099 7.30743 18.1099H9.34288C9.58549 19.806 11.0442 21.1099 12.8074 21.1099C14.5707 21.1099 16.0294 19.806 16.272 18.1099H18.3074C18.8074 18.1099 19.8074 17.7699 19.8074 16.6099C19.8074 16.1084 19.6205 15.8536 19.4083 15.5643C19.1297 15.1845 18.8074 14.7452 18.8074 13.6099V11.6099C18.8074 11.6099 19.3074 7.60986 15.3074 6.39762V5.60986C15.3074 4.22915 14.1881 3.10986 12.8074 3.10986C11.4267 3.10986 10.3074 4.22915 10.3074 5.60986V6.39762C6.30743 7.60986 6.80743 11.6099 6.80743 11.6099ZM17.8074 11.6099C17.8074 11.6099 18.3074 7.10986 12.8074 7.10986C7.30743 7.10986 7.80743 11.6099 7.80743 11.6099V13.6099C7.80743 14.9432 7.36299 15.6099 7.06669 16.0543C6.91855 16.2765 6.80743 16.4432 6.80743 16.6099C6.80743 17.1099 7.30743 17.1099 7.30743 17.1099H18.3074C18.3074 17.1099 18.8074 17.1099 18.8074 16.6099C18.8074 16.4432 18.6963 16.2765 18.5482 16.0543C18.2519 15.6099 17.8074 14.9432 17.8074 13.6099V11.6099ZM12.8074 4.10986C11.979 4.10986 11.3074 4.78144 11.3074 5.60986V6.20437C11.7646 6.14309 12.2634 6.10986 12.8074 6.10986C13.3515 6.10986 13.8502 6.14309 14.3074 6.20437V5.60986C14.3074 4.78144 13.6359 4.10986 12.8074 4.10986ZM15.2566 18.1137C15.0235 19.2529 14.0156 20.1099 12.8074 20.1099C11.598 20.1099 10.5891 19.251 10.3574 18.1099L15.2566 18.1137Z" fill="white"/>
</g>
</svg>
