<svg width="17" height="17" viewBox="0 0 17 17" fill="none" xmlns="http://www.w3.org/2000/svg">
<path d="M0.629947 15.5253H2.22995V6.72526C2.22995 6.57799 2.34935 6.45859 2.49661 6.45859H6.22995V0.32526C6.22995 0.177994 6.34935 0.0585938 6.49661 0.0585938H13.4299C13.5772 0.0585938 13.6966 0.177994 13.6966 0.32526V15.5253H16.0966C16.2439 15.5253 16.3633 15.6447 16.3633 15.7919C16.3633 15.9392 16.2439 16.0586 16.0966 16.0586H0.629947C0.48268 16.0586 0.363281 15.9392 0.363281 15.7919C0.363281 15.6447 0.48268 15.5253 0.629947 15.5253ZM10.7633 15.5253H11.8299V13.1253C11.8299 12.978 11.7105 12.8586 11.5633 12.8586H11.0299C10.8827 12.8586 10.7633 12.978 10.7633 13.1253V15.5253ZM9.69661 6.72526V15.5253H10.2299V13.1253C10.2299 12.6834 10.5881 12.3253 11.0299 12.3253H11.5633C12.0051 12.3253 12.3633 12.6834 12.3633 13.1253V15.5253H13.1633V0.591927H6.76328V6.45859H9.42995C9.57721 6.45859 9.69661 6.57799 9.69661 6.72526ZM2.76328 15.5253H9.16328V6.99193H2.76328V15.5253Z" fill="#FF8A00"/>
<path d="M7.82987 3.79199H9.42987C9.57713 3.79199 9.69653 3.91139 9.69653 4.05866V5.65866C9.69653 5.80593 9.57713 5.92533 9.42987 5.92533H7.82987C7.6826 5.92533 7.5632 5.80593 7.5632 5.65866V4.05866C7.5632 3.91139 7.6826 3.79199 7.82987 3.79199ZM8.09653 5.39199H9.1632V4.32533H8.09653V5.39199Z" fill="#FF8A00"/>
<path d="M7.82987 1.125H9.42987C9.57713 1.125 9.69653 1.2444 9.69653 1.39167V2.99167C9.69653 3.13893 9.57713 3.25833 9.42987 3.25833H7.82987C7.6826 3.25833 7.5632 3.13893 7.5632 2.99167V1.39167C7.5632 1.2444 7.6826 1.125 7.82987 1.125ZM8.09653 2.725H9.1632V1.65833H8.09653V2.725Z" fill="#FF8A00"/>
<path d="M10.4966 3.79199H12.0966C12.2439 3.79199 12.3633 3.91139 12.3633 4.05866V5.65866C12.3633 5.80593 12.2439 5.92533 12.0966 5.92533H10.4966C10.3493 5.92533 10.2299 5.80593 10.2299 5.65866V4.05866C10.2299 3.91139 10.3493 3.79199 10.4966 3.79199ZM10.7633 5.39199H11.8299V4.32533H10.7633V5.39199Z" fill="#FF8A00"/>
<path d="M10.4966 1.125H12.0966C12.2439 1.125 12.3633 1.2444 12.3633 1.39167V2.99167C12.3633 3.13893 12.2439 3.25833 12.0966 3.25833H10.4966C10.3493 3.25833 10.2299 3.13893 10.2299 2.99167V1.39167C10.2299 1.2444 10.3493 1.125 10.4966 1.125ZM10.7633 2.725H11.8299V1.65833H10.7633V2.725Z" fill="#FF8A00"/>
<path d="M10.4966 6.4585H12.0966C12.2439 6.4585 12.3633 6.5779 12.3633 6.72516V8.32516C12.3633 8.47243 12.2439 8.59183 12.0966 8.59183H10.4966C10.3493 8.59183 10.2299 8.47243 10.2299 8.32516V6.72516C10.2299 6.5779 10.3493 6.4585 10.4966 6.4585ZM10.7633 8.0585H11.8299V6.99183H10.7633V8.0585Z" fill="#FF8A00"/>
<path d="M10.4966 9.125H12.0966C12.2439 9.125 12.3633 9.2444 12.3633 9.39167V10.9917C12.3633 11.1389 12.2439 11.2583 12.0966 11.2583H10.4966C10.3493 11.2583 10.2299 11.1389 10.2299 10.9917V9.39167C10.2299 9.2444 10.3493 9.125 10.4966 9.125ZM10.7633 10.725H11.8299V9.65833H10.7633V10.725Z" fill="#FF8A00"/>
<path d="M5.42987 12.3252H3.82987C3.6826 12.3252 3.5632 12.2058 3.5632 12.0586V10.4586C3.5632 10.3113 3.6826 10.1919 3.82987 10.1919H5.42987C5.57713 10.1919 5.69653 10.3113 5.69653 10.4586V12.0586C5.69653 12.2058 5.57713 12.3252 5.42987 12.3252ZM5.1632 10.7252H4.09653V11.7919H5.1632V10.7252Z" fill="#FF8A00"/>
<path d="M5.42987 9.65872H3.82987C3.6826 9.65872 3.5632 9.53932 3.5632 9.39206V7.79206C3.5632 7.64479 3.6826 7.52539 3.82987 7.52539H5.42987C5.57713 7.52539 5.69653 7.64479 5.69653 7.79206V9.39206C5.69653 9.53932 5.57713 9.65872 5.42987 9.65872ZM5.1632 8.05872H4.09653V9.12539H5.1632V8.05872Z" fill="#FF8A00"/>
<path d="M5.42987 14.9917H3.82987C3.6826 14.9917 3.5632 14.8723 3.5632 14.7251V13.1251C3.5632 12.9778 3.6826 12.8584 3.82987 12.8584H5.42987C5.57713 12.8584 5.69653 12.9778 5.69653 13.1251V14.7251C5.69653 14.8723 5.57713 14.9917 5.42987 14.9917ZM5.1632 13.3917H4.09653V14.4584H5.1632V13.3917Z" fill="#FF8A00"/>
<path d="M8.09661 12.3252H6.49661C6.34935 12.3252 6.22995 12.2058 6.22995 12.0586V10.4586C6.22995 10.3113 6.34935 10.1919 6.49661 10.1919H8.09661C8.24388 10.1919 8.36328 10.3113 8.36328 10.4586V12.0586C8.36328 12.2058 8.24388 12.3252 8.09661 12.3252ZM7.82995 10.7252H6.76328V11.7919H7.82995V10.7252Z" fill="#FF8A00"/>
<path d="M8.09661 9.65872H6.49661C6.34935 9.65872 6.22995 9.53932 6.22995 9.39206V7.79206C6.22995 7.64479 6.34935 7.52539 6.49661 7.52539H8.09661C8.24388 7.52539 8.36328 7.64479 8.36328 7.79206V9.39206C8.36328 9.53932 8.24388 9.65872 8.09661 9.65872ZM7.82995 8.05872H6.76328V9.12539H7.82995V8.05872Z" fill="#FF8A00"/>
<path d="M8.09661 14.9917H6.49661C6.34935 14.9917 6.22995 14.8723 6.22995 14.7251V13.1251C6.22995 12.9778 6.34935 12.8584 6.49661 12.8584H8.09661C8.24388 12.8584 8.36328 12.9778 8.36328 13.1251V14.7251C8.36328 14.8723 8.24388 14.9917 8.09661 14.9917ZM7.82995 13.3917H6.76328V14.4584H7.82995V13.3917Z" fill="#FF8A00"/>
</svg>
