<svg width="69" height="76" viewBox="0 0 69 76" fill="none" xmlns="http://www.w3.org/2000/svg">
<rect x="0.742188" y="0.824219" width="67.5904" height="74.9361" rx="33.7952" fill="#F0FDFA"/>
<path fill-rule="evenodd" clip-rule="evenodd" d="M25.1248 47.6903V35.7353C25.1248 34.7108 25.1248 34.1978 24.9268 33.7463C24.7303 33.2963 24.3598 32.9618 23.6203 32.2943L23.3413 32.0438C21.7573 30.6158 20.9653 29.9003 20.9593 28.8668C20.9533 27.8318 21.6553 27.1838 23.0608 25.8848C23.2748 25.6878 23.4838 25.5068 23.6878 25.3418C24.3958 24.7748 25.3948 24.1538 26.1598 23.7068C26.5117 23.5026 26.9007 23.3703 27.3042 23.3175C27.7077 23.2647 28.1176 23.2925 28.5103 23.3993L29.2453 23.5928C29.8288 23.7458 30.3358 24.1223 30.6688 24.6473C31.5688 26.0693 33.0148 26.7818 34.4593 26.7818V53.2928C32.2588 53.2928 30.3733 53.0708 28.8853 52.7978C27.2758 52.5008 26.4703 52.3538 25.7983 51.5108C25.1233 50.6678 25.1248 49.6748 25.1248 47.6903Z" fill="#487AF9"/>
<path opacity="0.5" d="M43.7937 47.6903V35.7353C43.7937 34.7108 43.7937 34.1978 43.9917 33.7463C44.1882 33.2963 44.5587 32.9618 45.2982 32.2943L45.5772 32.0438C47.1612 30.6158 47.9532 29.9003 47.9592 28.8668C47.9652 27.8318 47.2617 27.1838 45.8577 25.8848C45.655 25.6967 45.4459 25.5156 45.2307 25.3418C44.5227 24.7748 43.5237 24.1538 42.7587 23.7068C42.4068 23.5026 42.0178 23.3703 41.6143 23.3175C41.2108 23.2647 40.8009 23.2925 40.4082 23.3993L39.6732 23.5928C39.0816 23.7499 38.5724 24.1272 38.2497 24.6473C37.3497 26.0693 35.9037 26.7818 34.4592 26.7818V53.2928C36.6597 53.2928 38.5452 53.0708 40.0332 52.7978C41.6427 52.5008 42.4482 52.3538 43.1217 51.5108C43.7937 50.6678 43.7937 49.6748 43.7937 47.6903Z" fill="#487AF9"/>
</svg>
