<svg width="68" height="76" viewBox="0 0 68 76" fill="none" xmlns="http://www.w3.org/2000/svg">
<rect x="0.367188" y="0.824219" width="67.5904" height="74.9361" rx="33.7952" fill="#F0FDFA"/>
<path fill-rule="evenodd" clip-rule="evenodd" d="M40.1845 24.6924C41.0758 24.6924 41.9494 24.9406 42.7076 25.4091C43.4658 25.8776 44.0786 26.548 44.4772 27.3451L46.6948 31.7786C47.0852 31.6186 47.4692 31.4458 47.8468 31.2602C48.2266 31.0706 48.6661 31.0395 49.0688 31.1739C49.4715 31.3084 49.8043 31.5972 49.9939 31.977C50.1836 32.3568 50.2147 32.7964 50.0802 33.1991C49.9458 33.6017 49.6569 33.9345 49.2771 34.1242C48.8926 34.2953 48.5059 34.4618 48.1172 34.6234L49.6547 37.7001C49.9885 38.3672 50.1621 39.1029 50.1619 39.8489V43.892C50.1619 44.5673 50.0194 45.235 49.7437 45.8515C49.468 46.4679 49.0653 47.0193 48.562 47.4695V49.4919C48.562 50.1284 48.3091 50.7388 47.859 51.1889C47.409 51.639 46.7985 51.8918 46.162 51.8918C45.5255 51.8918 44.9151 51.639 44.465 51.1889C44.0149 50.7388 43.7621 50.1284 43.7621 49.4919V48.6919H24.5625V49.4919C24.5625 50.1284 24.3096 50.7388 23.8595 51.1889C23.4095 51.639 22.799 51.8918 22.1625 51.8918C21.526 51.8918 20.9156 51.639 20.4655 51.1889C20.0154 50.7388 19.7626 50.1284 19.7626 49.4919V47.4695C18.7802 46.5895 18.1626 45.3128 18.1626 43.892V39.8473C18.1629 39.1024 18.3365 38.3679 18.6698 37.7017L20.1946 34.649C19.8084 34.4868 19.4271 34.3124 19.0506 34.1258C18.6727 33.9336 18.3855 33.6007 18.2508 33.1988C18.1161 32.7968 18.1448 32.358 18.3306 31.977C18.4244 31.7889 18.5544 31.6211 18.7132 31.4833C18.8719 31.3455 19.0562 31.2403 19.2556 31.1737C19.455 31.1071 19.6656 31.0805 19.8753 31.0954C20.085 31.1102 20.2897 31.1662 20.4777 31.2602C20.8564 31.4469 21.2404 31.6197 21.6297 31.7786L23.8473 27.3467C24.2457 26.5493 24.8584 25.8786 25.6166 25.4098C26.3748 24.941 27.2486 24.6926 28.14 24.6924H40.1845ZM26.9624 39.0921C26.3259 39.0921 25.7155 39.3449 25.2654 39.795C24.8153 40.2451 24.5625 40.8555 24.5625 41.492C24.5625 42.1285 24.8153 42.739 25.2654 43.1891C25.7155 43.6391 26.3259 43.892 26.9624 43.892C27.5989 43.892 28.2094 43.6391 28.6594 43.1891C29.1095 42.739 29.3624 42.1285 29.3624 41.492C29.3624 40.8555 29.1095 40.2451 28.6594 39.795C28.2094 39.3449 27.5989 39.0921 26.9624 39.0921ZM41.3621 39.0921C40.7256 39.0921 40.1152 39.3449 39.6651 39.795C39.215 40.2451 38.9622 40.8555 38.9622 41.492C38.9622 42.1285 39.215 42.739 39.6651 43.1891C40.1152 43.6391 40.7256 43.892 41.3621 43.892C41.9986 43.892 42.6091 43.6391 43.0591 43.1891C43.5092 42.739 43.7621 42.1285 43.7621 41.492C43.7621 40.8555 43.5092 40.2451 43.0591 39.795C42.6091 39.3449 41.9986 39.0921 41.3621 39.0921ZM40.1845 27.8923H28.14C27.8766 27.8923 27.6174 27.9572 27.3852 28.0814C27.1529 28.2056 26.955 28.3852 26.8088 28.6043L26.7096 28.7771L24.6777 32.8378C27.1544 33.5802 30.4919 34.2922 34.1623 34.2922C37.5894 34.2922 40.7237 33.6714 43.1381 32.985L43.6453 32.8378L41.6149 28.7771C41.4972 28.5416 41.3231 28.3388 41.1082 28.1867C40.8933 28.0346 40.6442 27.9379 40.3829 27.9051L40.1861 27.8923H40.1845Z" fill="#487AF9"/>
</svg>
