<svg width="25" height="25" viewBox="0 0 25 25" fill="none" xmlns="http://www.w3.org/2000/svg">
<g id="Card-single-line">
<g id="Vector">
<path fill-rule="evenodd" clip-rule="evenodd" d="M21.8073 9.07178C21.8073 6.86264 20.0164 5.07178 17.8073 5.07178H7.80725C5.59811 5.07178 3.80725 6.86264 3.80725 9.07178V15.0718C3.80725 17.2809 5.59811 19.0718 7.80725 19.0718H17.8073C20.0164 19.0718 21.8073 17.2809 21.8073 15.0718V9.07178ZM20.8073 9.07178C20.8073 8.72114 20.7471 8.38456 20.6365 8.07178C20.2247 6.90658 19.1135 6.07178 17.8073 6.07178H7.80725C6.50103 6.07178 5.38979 6.90658 4.97796 8.07178C4.86741 8.38456 4.80725 8.72114 4.80725 9.07178V10.0718V11.0718V15.0718C4.80725 16.7286 6.1504 18.0718 7.80725 18.0718H17.8073C19.4641 18.0718 20.8073 16.7286 20.8073 15.0718V11.0718V10.0718V9.07178Z" fill="white" fill-opacity="0.56"/>
<path d="M12.3073 16.0718H7.30725C7.03111 16.0718 6.80725 15.8479 6.80725 15.5718C6.80725 15.2956 7.03111 15.0718 7.30725 15.0718H12.3073C12.5834 15.0718 12.8073 15.2956 12.8073 15.5718C12.8073 15.8479 12.5834 16.0718 12.3073 16.0718Z" fill="white" fill-opacity="0.56"/>
<path d="M20.8073 9.07178H4.80725V10.0718H20.8073V9.07178Z" fill="white" fill-opacity="0.56"/>
</g>
</g>
</svg>
