<svg width="69" height="76" viewBox="0 0 69 76" fill="none" xmlns="http://www.w3.org/2000/svg">
<rect x="0.742188" y="0.311523" width="67.5904" height="74.9361" rx="33.7952" fill="#F0FDFA"/>
<path d="M26.1564 23.3036H36.0459L35.9225 23.3524L35.345 23.5489C34.4424 23.8572 33.6589 24.44 33.1041 25.2157C32.5493 25.9915 32.251 26.9213 32.251 27.875C32.251 28.8287 32.5493 29.7586 33.1041 30.5343C33.6589 31.3101 34.4424 31.8929 35.345 32.2011L35.9225 32.3992C36.1426 32.4743 36.3425 32.5987 36.5071 32.763C36.6716 32.9273 36.7964 33.1271 36.8718 33.347L37.0684 33.923C37.2634 34.4953 37.57 35.0233 37.9705 35.4763C38.371 35.9293 38.8573 36.2983 39.4014 36.5621C39.9455 36.8258 40.5364 36.979 41.1401 37.0128C41.7438 37.0466 42.3482 36.9602 42.9183 36.7588V49.2084C42.9183 50.4208 42.4367 51.5835 41.5794 52.4408C40.722 53.2982 39.5593 53.7798 38.3469 53.7798H26.1564C24.944 53.7798 23.7812 53.2982 22.9239 52.4408C22.0666 51.5835 21.585 50.4208 21.585 49.2084V27.875C21.585 26.6626 22.0666 25.4998 22.9239 24.6425C23.7812 23.7852 24.944 23.3036 26.1564 23.3036ZM32.2516 44.6369C31.6454 44.6369 31.064 44.8777 30.6354 45.3064C30.2067 45.7351 29.9659 46.3164 29.9659 46.9226C29.9659 47.5289 30.2067 48.1102 30.6354 48.5389C31.064 48.9675 31.6454 49.2084 32.2516 49.2084C32.8578 49.2084 33.4392 48.9675 33.8679 48.5389C34.2965 48.1102 34.5373 47.5289 34.5373 46.9226C34.5373 46.3164 34.2965 45.7351 33.8679 45.3064C33.4392 44.8777 32.8578 44.6369 32.2516 44.6369ZM41.3945 21.7798C41.6796 21.7798 41.9589 21.8598 42.2008 22.0106C42.4427 22.1614 42.6374 22.3771 42.7629 22.6331L42.836 22.8114L43.0341 23.3874C43.2432 24.0003 43.5801 24.5617 44.0224 25.0346C44.4648 25.5074 45.0026 25.8809 45.6002 26.1303L45.8821 26.2369L46.4581 26.4335C46.7433 26.5308 46.9933 26.7105 47.1764 26.9499C47.3595 27.1893 47.4675 27.4776 47.4868 27.7784C47.506 28.0791 47.4357 28.3789 47.2846 28.6396C47.1335 28.9004 46.9084 29.1105 46.6379 29.2434L46.4581 29.3165L45.8821 29.5146C45.2693 29.7237 44.7078 30.0606 44.235 30.503C43.7621 30.9454 43.3886 31.4832 43.1392 32.0807L43.0326 32.3626L42.836 32.9386C42.7385 33.2238 42.5587 33.4737 42.3192 33.6566C42.0797 33.8396 41.7914 33.9474 41.4906 33.9665C41.1899 33.9856 40.8902 33.915 40.6295 33.7638C40.3688 33.6126 40.1588 33.3875 40.0261 33.1169L39.953 32.9386L39.7549 32.3626C39.5458 31.7498 39.2089 31.1883 38.7665 30.7155C38.3241 30.2426 37.7864 29.8692 37.1888 29.6198L36.9069 29.5131L36.3309 29.3165C36.0456 29.2192 35.7956 29.0395 35.6125 28.8001C35.4294 28.5607 35.3214 28.2724 35.3022 27.9717C35.2829 27.6709 35.3533 27.3712 35.5044 27.1104C35.6555 26.8496 35.8805 26.6395 36.1511 26.5066L36.3309 26.4335L36.9069 26.2354C37.5197 26.0263 38.0812 25.6895 38.554 25.2471C39.0269 24.8047 39.4004 24.2669 39.6497 23.6693L39.7564 23.3874L39.953 22.8114C40.0556 22.5106 40.2498 22.2494 40.5083 22.0644C40.7668 21.8794 41.0766 21.7799 41.3945 21.7798Z" fill="#487AF9"/>
</svg>
