<svg width="25" height="25" viewBox="0 0 25 25" fill="none" xmlns="http://www.w3.org/2000/svg">
<g id="Chart-bar-1">
<path id="Vector 180" fill-rule="evenodd" clip-rule="evenodd" d="M5.80725 5.07178V19.5718V20.5718H4.80725H4.30725C4.03111 20.5718 3.80725 20.7956 3.80725 21.0718C3.80725 21.3479 4.03111 21.5718 4.30725 21.5718H21.3073C21.5834 21.5718 21.8073 21.3479 21.8073 21.0718C21.8073 20.7956 21.5834 20.5718 21.3073 20.5718H20.8073H19.8073V19.5718V9.07178C19.8073 8.24335 19.1357 7.57178 18.3073 7.57178C17.4788 7.57178 16.8073 8.24335 16.8073 9.07178V19.5718V20.5718H15.8073H15.3073H14.3073V19.5718V13.0718C14.3073 12.2434 13.6357 11.5718 12.8073 11.5718C11.9788 11.5718 11.3073 12.2434 11.3073 13.0718V19.5718V20.5718H10.3073H9.80725H8.80725V19.5718V5.07178C8.80725 4.24335 8.13568 3.57178 7.30725 3.57178C6.47882 3.57178 5.80725 4.24335 5.80725 5.07178ZM6.80725 20.0718C6.80725 20.3479 7.03111 20.5718 7.30725 20.5718C7.58339 20.5718 7.80725 20.3479 7.80725 20.0718V5.07178C7.80725 4.79563 7.58339 4.57178 7.30725 4.57178C7.03111 4.57178 6.80725 4.79563 6.80725 5.07178V20.0718ZM17.8073 20.0718C17.8073 20.3479 18.0311 20.5718 18.3073 20.5718C18.5834 20.5718 18.8073 20.3479 18.8073 20.0718V9.07178C18.8073 8.79564 18.5834 8.57178 18.3073 8.57178C18.0311 8.57178 17.8073 8.79564 17.8073 9.07178V20.0718ZM12.3073 20.0718C12.3073 20.3479 12.5311 20.5718 12.8073 20.5718C13.0834 20.5718 13.3073 20.3479 13.3073 20.0718V13.0718C13.3073 12.7956 13.0834 12.5718 12.8073 12.5718C12.5311 12.5718 12.3073 12.7956 12.3073 13.0718V20.0718Z" fill="white" fill-opacity="0.56"/>
</g>
</svg>
