<svg width="69" height="76" viewBox="0 0 69 76" fill="none" xmlns="http://www.w3.org/2000/svg">
<rect x="0.929688" y="0.824219" width="67.5904" height="74.9361" rx="33.7952" fill="#F0FDFA"/>
<path d="M34.7249 44.1872C27.2807 44.1872 21.2512 47.202 21.2512 50.9241V54.2925H48.1986V50.9241C48.1986 47.202 42.1691 44.1872 34.7249 44.1872ZM27.9881 34.082C27.9881 35.8687 28.6978 37.5822 29.9612 38.8456C31.2246 40.109 32.9382 40.8188 34.7249 40.8188C36.5116 40.8188 38.2252 40.109 39.4886 38.8456C40.752 37.5822 41.4617 35.8687 41.4617 34.082M33.8828 22.2925C33.3775 22.2925 33.0407 22.6462 33.0407 23.1346V28.1872H31.3565V23.9767C31.3565 23.9767 27.567 25.4251 27.567 30.2925C27.567 30.2925 26.3039 30.5283 26.3039 32.3977H43.146C43.0617 30.5283 41.8828 30.2925 41.8828 30.2925C41.8828 25.4251 38.0933 23.9767 38.0933 23.9767V28.1872H36.4091V23.1346C36.4091 22.6462 36.0891 22.2925 35.567 22.2925H33.8828Z" fill="#487AF9"/>
</svg>
