<svg width="24" height="25" viewBox="0 0 24 25" fill="none" xmlns="http://www.w3.org/2000/svg">
<g id="Cup-empty">
<g id="Vector">
<path fill-rule="evenodd" clip-rule="evenodd" d="M7.99927 3.61572C6.11365 3.61572 5.17084 3.61572 4.58505 4.20151C3.99927 4.7873 3.99927 5.7301 3.99927 7.61572V14.1157C3.99927 16.4454 3.99927 17.6103 4.37987 18.5291C4.88734 19.7543 5.86071 20.7277 7.08585 21.2351C8.00471 21.6157 9.16956 21.6157 11.4993 21.6157C13.829 21.6157 14.9938 21.6157 15.9127 21.2351C17.1378 20.7277 18.1112 19.7543 18.6187 18.5291C18.9993 17.6103 18.9993 16.4454 18.9993 14.1157V7.61572C18.9993 5.7301 18.9993 4.7873 18.4135 4.20151C17.8277 3.61572 16.8849 3.61572 14.9993 3.61572H7.99927ZM17.9993 6.61572C17.9993 5.67291 17.9993 5.20151 17.7064 4.90862C17.4135 4.61572 16.9421 4.61572 15.9993 4.61572H6.99927C6.05646 4.61572 5.58505 4.61572 5.29216 4.90862C4.99927 5.20151 4.99927 5.67291 4.99927 6.61572V14.1157C4.99927 16.4504 4.99927 17.6177 5.47158 18.5013C5.84452 19.199 6.41597 19.7705 7.11368 20.1434C7.99732 20.6157 9.16464 20.6157 11.4993 20.6157C13.8339 20.6157 15.0012 20.6157 15.8849 20.1434C16.5826 19.7705 17.154 19.199 17.527 18.5013C17.9993 17.6177 17.9993 16.4504 17.9993 14.1157V6.61572Z" fill="white" fill-opacity="0.56"/>
<path d="M18.4993 14.6157C20.4323 14.6157 21.9993 13.1157 21.9993 10.6157C21.9993 8.11572 20.4323 6.61572 18.4993 6.61572V7.61572C19.88 7.61572 20.9993 8.61572 20.9993 10.6157C20.9993 12.6157 19.88 13.6157 18.4993 13.6157V14.6157Z" fill="white" fill-opacity="0.56"/>
</g>
</g>
</svg>
