<svg width="12" height="12" viewBox="0 0 12 12" fill="none" xmlns="http://www.w3.org/2000/svg">
<path d="M11.447 5.46155L10.4694 4.34726L10.606 2.87031C10.6323 2.60751 10.4536 2.36573 10.2013 2.30791L8.75064 1.97678L7.99376 0.699557C7.92883 0.590252 7.82649 0.508185 7.70568 0.468562C7.58488 0.428939 7.45381 0.434444 7.33676 0.484058L5.97018 1.07799L4.60886 0.49457C4.36708 0.389449 4.08326 0.484058 3.95185 0.710069L3.18973 1.98203L1.74431 2.30791C1.48676 2.36573 1.30806 2.60225 1.33434 2.87031L1.471 4.34201L0.493369 5.46155C0.319919 5.66128 0.319919 5.95562 0.493369 6.15535L1.471 7.26963L1.33434 8.75184C1.30806 9.01464 1.48676 9.25642 1.73905 9.31424L3.18973 9.64537L3.9466 10.9173C4.08326 11.1433 4.36183 11.238 4.60886 11.1328L5.97018 10.5389L7.3315 11.1223C7.57328 11.2274 7.85711 11.1328 7.98851 10.9068L8.74538 9.6296L10.1961 9.29847C10.4536 9.24065 10.627 8.99887 10.6008 8.73607L10.4641 7.25912L11.4417 6.14483C11.6204 5.95562 11.6204 5.66128 11.447 5.46155ZM6.49579 8.43647H5.44457V7.38526H6.49579V8.43647ZM5.97018 6.33405C5.6811 6.33405 5.44457 6.09753 5.44457 5.80845V3.70602C5.44457 3.41694 5.6811 3.18042 5.97018 3.18042C6.25926 3.18042 6.49579 3.41694 6.49579 3.70602V5.80845C6.49579 6.09753 6.25926 6.33405 5.97018 6.33405Z" fill="#FF8A00"/>
</svg>
