<svg width="69" height="76" viewBox="0 0 69 76" fill="none" xmlns="http://www.w3.org/2000/svg">
<rect x="0.929688" y="0.311523" width="67.5904" height="74.9361" rx="33.7952" fill="#F0FDFA"/>
<path d="M39.7259 21.7798C39.0659 21.7798 38.0979 21.9698 37.2659 22.5678C36.3859 23.2038 35.7259 24.2538 35.7259 25.7798V28.2858C35.7327 28.6352 35.8412 28.975 36.0379 29.2638C36.2259 29.5258 36.5499 29.7838 37.2239 29.7838C37.8979 29.7838 38.2219 29.5258 38.4099 29.2638C38.6066 28.975 38.715 28.6352 38.7219 28.2858C38.7219 28.0206 38.8272 27.7662 39.0148 27.5787C39.2023 27.3911 39.4567 27.2858 39.7219 27.2858C39.9871 27.2858 40.2414 27.3911 40.429 27.5787C40.6165 27.7662 40.7219 28.0206 40.7219 28.2858C40.7219 28.8638 40.5579 29.7058 40.0339 30.4318C39.4739 31.2118 38.5499 31.7838 37.2239 31.7838C36.5839 31.7838 36.0339 31.6498 35.5759 31.4238C35.2899 33.6478 34.4559 36.6358 32.0179 39.0718C29.8459 41.2458 28.7799 43.9378 28.2559 46.0378C27.9759 47.1631 27.8019 48.3121 27.7359 49.4698L27.7279 49.6898V49.7518L27.7259 49.7718V49.7798L27.7219 49.8378C27.7192 49.8951 27.7092 49.9771 27.6919 50.0838C27.6515 50.3436 27.5719 50.5958 27.4559 50.8318C27.3343 51.0934 27.1443 51.3173 26.9059 51.4798C26.6659 51.6398 26.3019 51.7798 25.7259 51.7798C24.8863 51.7798 24.0681 51.5156 23.387 51.0248C22.706 50.5339 22.1966 49.8411 21.9311 49.0447C21.6657 48.2482 21.6575 47.3885 21.9078 46.5871C22.1581 45.7858 22.6543 45.0835 23.3259 44.5798C23.4309 44.5009 23.5194 44.402 23.5863 44.2889C23.6531 44.1758 23.6971 44.0506 23.7155 43.9205C23.734 43.7904 23.7267 43.6579 23.694 43.5307C23.6613 43.4034 23.6038 43.2838 23.5249 43.1788C23.446 43.0737 23.3471 42.9852 23.234 42.9184C23.1209 42.8515 22.9957 42.8076 22.8656 42.7891C22.7355 42.7707 22.603 42.778 22.4758 42.8107C22.3485 42.8434 22.2289 42.9009 22.1239 42.9798C21.1163 43.7355 20.3721 44.789 19.9966 45.9913C19.6212 47.1935 19.6336 48.4833 20.0321 49.6781C20.4306 50.8729 21.1949 51.9119 22.2168 52.6481C23.2387 53.3843 24.4664 53.7802 25.7259 53.7798H41.7259V52.7798C41.7259 51.9698 41.3499 50.6878 40.2599 50.1158C39.7844 49.8781 39.2572 49.7626 38.7259 49.7798H36.7259C36.4607 49.7798 36.2063 49.6744 36.0188 49.4869C35.8312 49.2994 35.7259 49.045 35.7259 48.7798C35.7259 48.5146 35.8312 48.2602 36.0188 48.0727C36.2063 47.8851 36.4607 47.7798 36.7259 47.7798H38.7259C39.0779 47.7798 39.4112 47.8065 39.7259 47.8598V42.7798C39.7259 42.5146 39.8312 42.2602 40.0188 42.0727C40.2063 41.8851 40.4607 41.7798 40.7259 41.7798C40.9911 41.7798 41.2454 41.8851 41.433 42.0727C41.6205 42.2602 41.7259 42.5146 41.7259 42.7798V48.6758C43.3059 49.8158 43.7259 51.7118 43.7259 52.7798V53.7798H48.7259C48.9911 53.7798 49.2454 53.6744 49.433 53.4869C49.6205 53.2994 49.7259 53.045 49.7259 52.7798C49.7259 51.0398 49.1339 49.7338 48.1159 48.8858C47.4277 48.3316 46.6014 47.9755 45.7259 47.8558V31.7798H46.7259C47.5215 31.7798 48.2846 31.4637 48.8472 30.9011C49.4098 30.3385 49.7259 29.5754 49.7259 28.7798V26.3458C49.7258 26.0007 49.6364 25.6615 49.4665 25.3611C49.2965 25.0608 49.0517 24.8095 48.7559 24.6318L45.1899 22.4918C44.4129 22.0258 43.5239 21.7797 42.6179 21.7798H39.7259Z" fill="#487AF9"/>
</svg>
