<svg width="34" height="34" viewBox="0 0 34 34" fill="none" xmlns="http://www.w3.org/2000/svg">
<path d="M11.7254 17.5565V5.1287C11.7254 3.41987 13.1236 2.02174 14.8324 2.02174H28.8137C30.5225 2.02174 31.9206 3.41987 31.9206 5.1287V14.4496H26.5922L24.6038 11.7465C24.5844 11.7143 24.5571 11.6877 24.5244 11.6692C24.4918 11.6508 24.4549 11.6411 24.4173 11.6411C24.3798 11.6411 24.3429 11.6508 24.3102 11.6692C24.2776 11.6877 24.2503 11.7143 24.2309 11.7465L21.1395 16.003C21.0463 16.0963 20.8599 16.1118 20.7667 16.003L18.5452 13.2845C18.523 13.2588 18.4956 13.2382 18.4648 13.2241C18.4339 13.21 18.4004 13.2027 18.3665 13.2027C18.3326 13.2027 18.2991 13.21 18.2683 13.2241C18.2375 13.2382 18.2101 13.2588 18.1879 13.2845L14.9101 17.4167C14.7858 17.5565 14.8945 17.7895 15.0809 17.7895H24.93V20.6635H14.8324C13.108 20.6635 11.7254 19.2809 11.7254 17.5565ZM7.06499 31.5378V29.9844H3.95803V31.5378H0.851074V0.468262H3.95803V2.02174H7.06499V0.468262H10.7778C9.45735 1.61784 8.61847 3.26452 8.61847 5.1287V17.5565C8.61847 20.9897 11.3992 23.7704 14.8324 23.7704H22.1337C20.5336 25.0598 19.4928 27.0017 19.4928 29.2076C19.4928 30.031 19.6637 30.8077 19.9278 31.5378H7.06499ZM3.95803 8.23565H7.06499V5.1287H3.95803V8.23565ZM3.95803 14.4496H7.06499V11.3426H3.95803V14.4496ZM3.95803 20.6635H7.06499V17.5565H3.95803V20.6635ZM7.06499 26.8774V23.7704H3.95803V26.8774H7.06499ZM33.4741 17.5565V20.6635H30.3672V29.2076C30.3672 30.2376 29.958 31.2255 29.2297 31.9538C28.5013 32.6821 27.5135 33.0913 26.4835 33.0913C25.4534 33.0913 24.4656 32.6821 23.7373 31.9538C23.0089 31.2255 22.5998 30.2376 22.5998 29.2076C22.6001 28.5629 22.7609 27.9285 23.0677 27.3614C23.3745 26.7944 23.8176 26.3127 24.3571 25.9597C24.8966 25.6068 25.5155 25.3936 26.1579 25.3396C26.8003 25.2855 27.4461 25.3923 28.0369 25.6501V17.5565H33.4741Z" fill="#487AF9"/>
</svg>
