<svg width="33" height="33" viewBox="0 0 33 33" fill="none" xmlns="http://www.w3.org/2000/svg">
<path id="Vector" d="M25.5709 32.7798H27.9854C29.2073 32.7798 30.2109 31.8343 30.3563 30.6416L32.7563 6.67069H25.4836V0.779785H22.6182V6.67069H15.3891L15.8254 10.0743C18.3127 10.758 20.64 11.9943 22.0363 13.3616C24.1309 15.4271 25.5709 17.5652 25.5709 21.0561V32.7798ZM0.756348 31.3252V29.8707H22.6182V31.3252C22.6182 32.1107 21.9636 32.7798 21.12 32.7798H2.21089C1.41089 32.7798 0.756348 32.1107 0.756348 31.3252ZM22.6182 21.1434C22.6182 9.50706 0.756348 9.50706 0.756348 21.1434H22.6182ZM0.756348 24.0525H22.5745V26.9616H0.756348V24.0525Z" fill="#487AF9"/>
</svg>
