<svg width="21" height="20" viewBox="0 0 21 20" fill="none" xmlns="http://www.w3.org/2000/svg">
<path d="M18.9411 2.26365C17.9066 1.15173 16.457 0.519063 14.9383 0.516718C13.4184 0.518477 11.9673 1.15081 10.9312 2.26294L10.5781 2.63606L10.225 2.26294C8.16917 0.0502798 4.70881 -0.0767897 2.49619 1.97906C2.39814 2.0702 2.30345 2.16485 2.21231 2.26294C0.0314425 4.61527 0.0314425 8.2507 2.21231 10.603L10.0592 18.8781C10.3307 19.1647 10.7831 19.177 11.0697 18.9055C11.0791 18.8966 11.0882 18.8875 11.0971 18.8781L18.9411 10.603C21.1218 8.25095 21.1218 4.61574 18.9411 2.26365ZM17.9068 9.61877H17.9061L10.5781 17.3477L3.24948 9.61877C1.58342 7.82137 1.58342 5.04389 3.24948 3.24649C4.76246 1.60665 7.31838 1.50383 8.95822 3.01681C9.03784 3.09027 9.11444 3.16688 9.1879 3.24649L10.0592 4.16571C10.3464 4.45101 10.8099 4.45101 11.0971 4.16571L11.9684 3.2472C13.4814 1.60736 16.0373 1.50454 17.6771 3.01752C17.7568 3.09099 17.8334 3.16759 17.9068 3.2472C19.5874 5.04745 19.5997 7.83 17.9068 9.61877Z" fill="#11263C" fill-opacity="0.5"/>
</svg>
