<svg width="21" height="19" viewBox="0 0 21 19" fill="none" xmlns="http://www.w3.org/2000/svg">
<g id="Home">
<path id="Vector 130" fill-rule="evenodd" clip-rule="evenodd" d="M6.78341 18.8955C7.72622 18.8955 8.19762 18.8955 8.49052 18.6026C8.78341 18.3097 8.78341 17.8383 8.78341 16.8955L8.78341 13.6942C8.78341 13.2227 8.78341 12.987 8.92986 12.8406C9.0763 12.6942 9.31201 12.6942 9.78341 12.6942H11.7834C12.2548 12.6942 12.4905 12.6942 12.637 12.8406C12.7834 12.987 12.7834 13.2227 12.7834 13.6942L12.7834 16.8955C12.7834 17.8383 12.7834 18.3097 13.0763 18.6026C13.3692 18.8955 13.8406 18.8955 14.7834 18.8955H16.7834C17.7262 18.8955 18.1976 18.8955 18.4905 18.6026C18.7834 18.3097 18.7834 17.8383 18.7834 16.8955L18.7834 7.48006C18.7834 7.41326 18.7834 7.37986 18.7933 7.35933C18.8121 7.32013 18.8541 7.2976 18.8972 7.30359C18.9198 7.30673 18.9476 7.32521 19.0032 7.36216L19.8689 7.93702C20.1174 8.10198 20.4541 8.01219 20.5874 7.74546C20.6994 7.52151 20.627 7.24924 20.4186 7.11047L11.8922 1.43236C11.3547 1.07444 11.086 0.895484 10.7834 0.895508C10.4809 0.895531 10.2122 1.07453 9.67477 1.43253L1.19577 7.08096C0.987827 7.21948 0.9155 7.49112 1.02703 7.7147C1.15964 7.98056 1.49475 8.07083 1.74296 7.90755L2.57041 7.36325C2.62049 7.3303 2.64552 7.31383 2.66563 7.3102C2.71154 7.30191 2.75709 7.32646 2.77539 7.36938C2.78341 7.38817 2.78341 7.41814 2.78341 7.47809L2.78341 16.8955C2.78341 17.8383 2.78341 18.3097 3.0763 18.6026C3.3692 18.8955 3.8406 18.8955 4.78341 18.8955H6.78341ZM7.78341 16.8955C7.78341 17.3669 7.78341 17.6026 7.63696 17.7491C7.49052 17.8955 7.25481 17.8955 6.78341 17.8955H4.78341C4.31201 17.8955 4.0763 17.8955 3.92986 17.7491C3.78341 17.6026 3.78341 17.3669 3.78341 16.8955L3.78341 7.08686C3.78341 6.82427 3.78341 6.69297 3.84281 6.58225C3.90221 6.47153 4.0116 6.39892 4.23038 6.2537L9.67714 2.63831C10.2135 2.28229 10.4817 2.10429 10.7834 2.10431C11.0851 2.10434 11.3533 2.28239 11.8895 2.6385L17.3366 6.25547C17.5553 6.4007 17.6646 6.47331 17.724 6.58402C17.7834 6.69473 17.7834 6.826 17.7834 7.08853L17.7834 16.8955C17.7834 17.3669 17.7834 17.6026 17.637 17.7491C17.4905 17.8955 17.2548 17.8955 16.7834 17.8955H14.7834C14.312 17.8955 14.0763 17.8955 13.9299 17.7491C13.7834 17.6026 13.7834 17.3669 13.7834 16.8955L13.7834 13.6942C13.7834 12.7513 13.7834 12.2799 13.4905 11.987C13.1976 11.6942 12.7262 11.6942 11.7834 11.6942H9.78341C8.8406 11.6942 8.36919 11.6942 8.0763 11.987C7.78341 12.2799 7.78341 12.7513 7.78341 13.6942L7.78341 16.8955Z" fill="white" fill-opacity="0.56"/>
</g>
</svg>
