<svg width="25" height="25" viewBox="0 0 25 25" fill="none" xmlns="http://www.w3.org/2000/svg">
<g id="Message-rectangular">
<path id="Vector 220" fill-rule="evenodd" clip-rule="evenodd" d="M2.80725 14.5718C2.80725 9.85773 2.80725 7.50071 4.27172 6.03624C5.73618 4.57178 8.09321 4.57178 12.8073 4.57178H15.8073C17.6685 4.57178 18.5992 4.57178 19.3523 4.81649C20.8745 5.31108 22.0679 6.5045 22.5625 8.02669C22.8073 8.77986 22.8073 9.7105 22.8073 11.5718C22.8073 13.4331 22.8073 14.3637 22.5625 15.1169C22.0679 16.6391 20.8745 17.8325 19.3523 18.3271C18.5992 18.5718 17.6685 18.5718 15.8073 18.5718H10.1561C9.73324 18.5718 9.5218 18.5718 9.3165 18.6153C9.11119 18.6589 8.91798 18.7448 8.53155 18.9165L5.24855 20.3756C4.95759 20.505 4.64273 20.5718 4.32433 20.5718C3.48647 20.5718 2.80725 19.8926 2.80725 19.0547V14.5718ZM15.8073 5.57178C17.671 5.57178 18.6029 5.57178 19.338 5.87626C20.3181 6.28224 21.0968 7.06093 21.5028 8.04104C21.8073 8.77613 21.8073 9.70801 21.8073 11.5718C21.8073 13.4355 21.8073 14.3674 21.5028 15.1025C21.0968 16.0826 20.3181 16.8613 19.338 17.2673C18.6029 17.5718 17.671 17.5718 15.8073 17.5718H10.3805C9.74623 17.5718 9.42908 17.5718 9.12112 17.6371C8.81316 17.7025 8.52334 17.8313 7.94371 18.0889L4.73523 19.5149C4.65085 19.5524 4.55954 19.5718 4.4672 19.5718C4.10272 19.5718 3.80725 19.2763 3.80725 18.9118V13.5718C3.80725 9.80054 3.80725 7.91492 4.97882 6.74335C6.1504 5.57178 8.03601 5.57178 11.8073 5.57178H15.8073Z" fill="white" fill-opacity="0.56"/>
</g>
</svg>
