<svg width="68" height="76" viewBox="0 0 68 76" fill="none" xmlns="http://www.w3.org/2000/svg">
<rect x="0.335938" y="0.824219" width="67.5904" height="74.9361" rx="33.7952" fill="#F0FDFA"/>
<path d="M36.5935 44.7976V40.7554C36.5935 40.429 36.4638 40.1159 36.233 39.8851C36.0021 39.6543 35.689 39.5246 35.3626 39.5246H32.9009C32.5744 39.5246 32.2613 39.6543 32.0305 39.8851C31.7997 40.1159 31.67 40.429 31.67 40.7554V44.7951C29.7993 45.2736 28.111 46.2928 26.8163 47.7254C25.5217 49.158 24.6779 50.9404 24.3907 52.8499C24.3626 53.0279 24.3734 53.2098 24.4223 53.3833C24.4712 53.5567 24.5571 53.7174 24.6741 53.8545C24.791 53.9916 24.9363 54.1017 25.0998 54.1773C25.2634 54.2529 25.4414 54.2922 25.6215 54.2925H42.6616C42.8418 54.2922 43.0198 54.2529 43.1833 54.1773C43.3469 54.1017 43.4921 53.9916 43.6091 53.8545C43.726 53.7174 43.8119 53.5567 43.8608 53.3833C43.9098 53.2098 43.9206 53.0279 43.8925 52.8499C43.6033 50.9384 42.7565 49.1547 41.4581 47.7223C40.1597 46.2899 38.4675 45.2725 36.5935 44.7976ZM48.0134 35.2879L41.8591 22.9793C41.7578 22.7737 41.6011 22.6005 41.4067 22.4792C41.2123 22.3578 40.9879 22.2932 40.7587 22.2925H27.5048C27.2768 22.2929 27.0534 22.3567 26.8596 22.4767C26.6657 22.5966 26.509 22.7681 26.4068 22.9719L20.2525 35.2806C20.1588 35.4677 20.1142 35.6756 20.1232 35.8846C20.1321 36.0937 20.1943 36.2971 20.3037 36.4755C20.4131 36.6539 20.5662 36.8014 20.7485 36.9042C20.9308 37.007 21.1362 37.0616 21.3455 37.0628H41.5169V40.7554C41.5169 41.0819 41.6466 41.395 41.8774 41.6258C42.1083 41.8566 42.4213 41.9863 42.7478 41.9863C43.0742 41.9863 43.3873 41.8566 43.6181 41.6258C43.849 41.395 43.9786 41.0819 43.9786 40.7554V37.0628H46.9179C47.1264 37.0614 47.3311 37.007 47.5128 36.9048C47.6945 36.8026 47.8473 36.6559 47.9568 36.4785C48.0662 36.3011 48.1289 36.0988 48.1388 35.8905C48.1487 35.6823 48.1056 35.4749 48.0134 35.2879Z" fill="#487AF9"/>
</svg>
