<svg width="24" height="24" viewBox="0 0 15 19" fill="none" xmlns="http://www.w3.org/2000/svg">
<g id="Group 20">
<path id="Vector" fill-rule="evenodd" clip-rule="evenodd" d="M0.807251 13.0718C0.807251 13.3479 1.03111 13.5718 1.30725 13.5718H3.80725V18.0718C3.80725 18.3479 4.03111 18.5718 4.30725 18.5718C4.58339 18.5718 4.80725 18.3479 4.80725 18.0718V13.5718H10.3073C10.5834 13.5718 10.8073 13.3479 10.8073 13.0718C10.8073 12.7956 10.5834 12.5718 10.3073 12.5718H4.80725V10.5718H9.80725C12.8073 10.5718 14.8073 9.07178 14.8073 5.57178C14.8073 2.07178 11.8073 0.571777 7.80725 0.571777H4.80725C4.30725 0.571777 3.80725 1.07178 3.80725 1.57178V9.57178H1.30725C1.03111 9.57178 0.807251 9.79564 0.807251 10.0718C0.807251 10.3479 1.03111 10.5718 1.30725 10.5718H3.80725V12.5718H1.30725C1.03111 12.5718 0.807251 12.7956 0.807251 13.0718ZM13.8073 5.57178C13.8073 8.07178 12.3073 9.57178 9.80725 9.57178H4.80725V1.97178C4.80725 1.78322 4.80725 1.68893 4.86583 1.63036C4.92441 1.57178 5.01869 1.57178 5.20725 1.57178H7.80725C11.8073 1.57178 13.8073 3.07178 13.8073 5.57178Z" fill="white" fill-opacity="0.56"/>
</g>
</svg>
