<svg width="25" height="25" viewBox="0 0 25 25" fill="none" xmlns="http://www.w3.org/2000/svg">
<g id="Route-complex">
<g id="Vector">
<path d="M15.8073 6.57178C15.8073 8.22863 14.4641 9.57178 12.8073 9.57178C11.1504 9.57178 9.80725 8.22863 9.80725 6.57178C9.80725 4.91492 11.1504 3.57178 12.8073 3.57178C14.4641 3.57178 15.8073 4.91492 15.8073 6.57178ZM10.8058 6.57178C10.8058 6.66831 10.8127 6.76325 10.8259 6.85614C10.8685 7.15592 10.9776 7.43431 11.1377 7.67592C11.496 8.21664 12.11 8.57319 12.8073 8.57319C13.5045 8.57319 14.1185 8.21664 14.4768 7.67592C14.6369 7.43431 14.746 7.15592 14.7886 6.85614C14.8018 6.76325 14.8087 6.66831 14.8087 6.57178C14.8087 5.46643 13.9126 4.57037 12.8073 4.57037C11.7019 4.57037 10.8058 5.46643 10.8058 6.57178Z" fill="white" fill-opacity="0.56"/>
<path d="M9.80725 16.5718C9.80725 18.2286 8.46411 19.5718 6.80725 19.5718C5.1504 19.5718 3.80725 18.2286 3.80725 16.5718C3.80725 14.9149 5.1504 13.5718 6.80725 13.5718C8.46411 13.5718 9.80725 14.9149 9.80725 16.5718ZM4.80584 16.5718C4.80584 17.6771 5.7019 18.5732 6.80725 18.5732C7.12924 18.5732 7.43348 18.4971 7.70298 18.362C7.96822 18.2291 8.19982 18.0389 8.38158 17.8077C8.6491 17.4674 8.80866 17.0382 8.80866 16.5718C8.80866 15.4664 7.9126 14.5704 6.80725 14.5704C6.79219 14.5704 6.77718 14.5705 6.7622 14.5709C6.45684 14.5776 6.16833 14.6527 5.91141 14.7816C5.25583 15.1103 4.80584 15.7885 4.80584 16.5718Z" fill="white" fill-opacity="0.56"/>
<path d="M21.8073 16.5718C21.8073 18.2286 20.4641 19.5718 18.8073 19.5718C17.1504 19.5718 15.8073 18.2286 15.8073 16.5718C15.8073 14.9149 17.1504 13.5718 18.8073 13.5718C20.4641 13.5718 21.8073 14.9149 21.8073 16.5718ZM16.8058 16.5718C16.8058 17.0382 16.9654 17.4674 17.2329 17.8077C17.4147 18.0389 17.6463 18.2291 17.9115 18.362C18.181 18.4971 18.4853 18.5732 18.8073 18.5732C19.9126 18.5732 20.8087 17.6771 20.8087 16.5718C20.8087 15.7885 20.3587 15.1103 19.7031 14.7816C19.4462 14.6527 19.1577 14.5776 18.8523 14.5709C18.8373 14.5705 18.8223 14.5704 18.8073 14.5704C17.7019 14.5704 16.8058 15.4664 16.8058 16.5718Z" fill="white" fill-opacity="0.56"/>
<path fill-rule="evenodd" clip-rule="evenodd" d="M12.8073 20.5718C14.8201 20.5718 16.6346 19.7222 17.9115 18.362C17.6463 18.2291 17.4147 18.0389 17.2329 17.8077C16.1177 18.9725 14.5472 19.6979 12.8073 19.6979C11.0673 19.6979 9.49678 18.9725 8.38158 17.8077C8.19982 18.0389 7.96822 18.2291 7.70298 18.362C8.97995 19.7222 10.7944 20.5718 12.8073 20.5718ZM5.91141 14.7816C6.16833 14.6527 6.45684 14.5776 6.7622 14.5709C6.70887 14.2457 6.68114 13.912 6.68114 13.5718C6.68114 10.7672 8.56578 8.40278 11.1377 7.67592C10.9776 7.43431 10.8685 7.15592 10.8259 6.85614C7.92483 7.7107 5.80725 10.3939 5.80725 13.5718C5.80725 13.9844 5.84294 14.3886 5.91141 14.7816ZM19.8073 13.5718C19.8073 13.9844 19.7716 14.3886 19.7031 14.7816C19.4462 14.6527 19.1577 14.5776 18.8523 14.5709C18.9056 14.2457 18.9334 13.912 18.9334 13.5718C18.9334 10.7672 17.0487 8.40278 14.4768 7.67592C14.6369 7.43431 14.746 7.15592 14.7886 6.85614C17.6897 7.7107 19.8073 10.3939 19.8073 13.5718Z" fill="white" fill-opacity="0.56"/>
</g>
</g>
</svg>
