<svg width="34" height="33" viewBox="0 0 34 33" fill="none" xmlns="http://www.w3.org/2000/svg">
<rect x="0.363281" y="0.984375" width="33" height="32" rx="16" fill="#FF8A00"/>
<path fill-rule="evenodd" clip-rule="evenodd" d="M20.5302 19.2634H19.8017L19.5435 19.0144C20.6501 17.7234 21.2218 15.9621 20.9082 14.0902C20.4748 11.5267 18.3355 9.47959 15.7536 9.16607C11.853 8.68656 8.57018 11.9693 9.04969 15.8699C9.36321 18.4519 11.4103 20.5912 13.9739 21.0246C15.8458 21.3382 17.607 20.7664 18.898 19.6599L19.147 19.9181V20.6466L23.066 24.5656C23.4441 24.9437 24.0619 24.9437 24.44 24.5656C24.8181 24.1875 24.8181 23.5697 24.44 23.1916L20.5302 19.2634ZM14.9973 19.2634C12.7012 19.2634 10.8477 17.41 10.8477 15.1139C10.8477 12.8178 12.7012 10.9643 14.9973 10.9643C17.2934 10.9643 19.1469 12.8178 19.1469 15.1139C19.1469 17.41 17.2934 19.2634 14.9973 19.2634Z" fill="white"/>
</svg>
