<svg width="69" height="76" viewBox="0 0 69 76" fill="none" xmlns="http://www.w3.org/2000/svg">
<rect x="0.554688" y="0.311523" width="67.5904" height="74.9361" rx="33.7952" fill="#F0FDFA"/>
<path d="M19.9497 46.0998C19.9497 45.6731 20.09 45.3131 20.3705 45.0198C20.651 44.7264 20.9908 44.5798 21.3897 44.5798C21.603 44.5798 21.81 44.6134 22.0105 44.6806C22.211 44.7478 22.4041 44.8475 22.5897 44.9798C22.9364 45.1931 23.283 45.3798 23.6297 45.5398C23.9764 45.6998 24.3497 45.7798 24.7497 45.7798C25.6297 45.7798 26.3833 45.4667 27.0105 44.8406C27.6377 44.2144 27.9508 43.4608 27.9497 42.5798C27.9486 41.6987 27.6356 40.9457 27.0105 40.3206C26.3854 39.6955 25.6318 39.3819 24.7497 39.3798C24.3497 39.3798 23.963 39.4464 23.5897 39.5798C23.2164 39.7131 22.883 39.9131 22.5897 40.1798C22.4297 40.3131 22.243 40.4134 22.0297 40.4806C21.8164 40.5478 21.603 40.5808 21.3897 40.5798C20.9897 40.5798 20.65 40.4331 20.3705 40.1398C20.091 39.8465 19.9508 39.4865 19.9497 39.0598V32.9798C19.9497 32.5265 20.1033 32.1467 20.4105 31.8406C20.7177 31.5345 21.0974 31.3809 21.5497 31.3798H27.5497C27.4164 30.9798 27.3166 30.5798 27.2505 30.1798C27.1844 29.7798 27.1508 29.3798 27.1497 28.9798C27.1497 26.9798 27.85 25.2801 29.2505 23.8806C30.651 22.4811 32.3508 21.7809 34.3497 21.7798C36.3486 21.7787 38.0489 22.479 39.4505 23.8806C40.8521 25.2822 41.5518 26.9819 41.5497 28.9798C41.5497 29.3798 41.5166 29.7798 41.4505 30.1798C41.3844 30.5798 41.2841 30.9798 41.1497 31.3798H47.1497C47.603 31.3798 47.9833 31.5334 48.2905 31.8406C48.5977 32.1478 48.7508 32.5275 48.7497 32.9798V39.0598C48.7497 39.5131 48.5961 39.8934 48.2889 40.2006C47.9817 40.5078 47.602 40.6609 47.1497 40.6598C46.9364 40.6598 46.7497 40.6129 46.5897 40.519C46.4297 40.4251 46.2697 40.312 46.1097 40.1798C45.8164 39.9131 45.483 39.7131 45.1097 39.5798C44.7364 39.4464 44.3497 39.3798 43.9497 39.3798C43.0697 39.3798 42.3161 39.6934 41.6889 40.3206C41.0617 40.9478 40.7486 41.7008 40.7497 42.5798C40.7508 43.4587 41.0644 44.2123 41.6905 44.8406C42.3166 45.4688 43.0697 45.7819 43.9497 45.7798C44.3497 45.7798 44.7364 45.7131 45.1097 45.5798C45.483 45.4464 45.8164 45.2464 46.1097 44.9798C46.243 44.8464 46.3966 44.7328 46.5705 44.639C46.7444 44.5451 46.9374 44.4987 47.1497 44.4998C47.603 44.4998 47.9833 44.6534 48.2905 44.9606C48.5977 45.2678 48.7508 45.6475 48.7497 46.0998V52.1798C48.7497 52.6331 48.5961 53.0134 48.2889 53.3206C47.9817 53.6278 47.602 53.7808 47.1497 53.7798H21.5497C21.0964 53.7798 20.7166 53.6262 20.4105 53.319C20.1044 53.0118 19.9508 52.632 19.9497 52.1798V46.0998Z" fill="#487AF9"/>
</svg>
